<svg width="280" height="119" viewBox="0 0 280 119" fill="none" xmlns="http://www.w3.org/2000/svg">
<path d="M6.72852 83.9062C5.94727 84.7852 4.97721 85.2148 3.81836 85.1953C2.80273 85.1823 2.03451 84.8177 1.51367 84.1016C0.992839 83.3854 0.791016 82.4414 0.908203 81.2695L2.05078 74.4336H4.80469L3.64258 81.2988C3.61654 81.5137 3.61328 81.7155 3.63281 81.9043C3.69792 82.5553 4.05924 82.8906 4.7168 82.9102C5.56966 82.9362 6.27604 82.6074 6.83594 81.9238L8.1543 74.4336H10.9277L9.0918 85H6.52344L6.72852 83.9062ZM19.0656 82.0215C19.1698 81.5007 18.8085 81.123 17.9816 80.8887L17.093 80.6641C14.9901 80.0846 13.968 79.0625 14.0266 77.5977C14.0591 76.6016 14.4986 75.791 15.3449 75.166C16.1978 74.5345 17.2232 74.2253 18.4211 74.2383C19.6125 74.2513 20.576 74.5671 21.3117 75.1855C22.0474 75.804 22.4217 76.6276 22.4348 77.6562L19.7004 77.6465C19.7134 76.7415 19.2642 76.2826 18.3527 76.2695C17.923 76.2695 17.5487 76.377 17.2297 76.5918C16.9172 76.8066 16.7251 77.0964 16.6535 77.4609C16.5559 77.9818 16.9497 78.3496 17.8352 78.5645L18.2258 78.6523C19.1242 78.8672 19.8111 79.1146 20.2863 79.3945C20.7616 79.668 21.1262 80.0098 21.3801 80.4199C21.6405 80.8301 21.7609 81.3216 21.7414 81.8945C21.7219 82.5651 21.5038 83.151 21.0871 83.6523C20.677 84.1536 20.1105 84.541 19.3879 84.8145C18.6717 85.0879 17.9165 85.2148 17.1223 85.1953C15.9504 85.1823 14.9738 84.847 14.1926 84.1895C13.4113 83.5254 13.0142 82.6693 13.0012 81.6211L15.5988 81.6406C15.6249 82.6497 16.1652 83.1608 17.2199 83.1738C17.7277 83.1738 18.1444 83.0697 18.4699 82.8613C18.802 82.653 19.0005 82.373 19.0656 82.0215ZM29.8402 85.1953C28.9158 85.1888 28.0954 84.9642 27.3793 84.5215C26.6697 84.0723 26.1391 83.4603 25.7875 82.6855C25.4359 81.9043 25.2992 81.0449 25.3773 80.1074L25.4066 79.7168C25.5043 78.6882 25.8038 77.7441 26.3051 76.8848C26.8064 76.0254 27.4509 75.3646 28.2387 74.9023C29.0264 74.4336 29.8988 74.2122 30.8559 74.2383C32.2165 74.2643 33.2452 74.7656 33.9418 75.7422C34.6449 76.7122 34.9118 77.9427 34.7426 79.4336L34.5863 80.6348H28.1117C28.0857 81.3184 28.2517 81.8652 28.6098 82.2754C28.9678 82.6855 29.4561 82.8971 30.0746 82.9102C31.0772 82.9362 31.9561 82.5488 32.7113 81.748L33.9711 83.3105C33.574 83.9095 33.001 84.3783 32.2523 84.7168C31.5036 85.0488 30.6996 85.2083 29.8402 85.1953ZM30.7191 76.5137C30.2113 76.5007 29.7589 76.6602 29.3617 76.9922C28.9711 77.3242 28.6195 77.9004 28.307 78.7207H32.0961L32.1547 78.4668C32.1938 78.2064 32.197 77.959 32.1645 77.7246C32.0993 77.347 31.9398 77.054 31.6859 76.8457C31.432 76.6309 31.1098 76.5202 30.7191 76.5137ZM50.0613 85C49.9767 84.7331 49.9409 84.4141 49.9539 84.043C49.1596 84.8372 48.2612 85.2214 47.2586 85.1953C46.3341 85.1823 45.5659 84.8828 44.9539 84.2969C44.3484 83.7044 44.0652 82.9753 44.1043 82.1094C44.1499 80.957 44.6316 80.0749 45.5496 79.4629C46.4741 78.8444 47.7111 78.5352 49.2605 78.5352L50.5496 78.5547L50.6863 77.9199C50.7254 77.7051 50.7352 77.5 50.7156 77.3047C50.6831 76.9987 50.5659 76.7611 50.3641 76.5918C50.1688 76.416 49.9083 76.3249 49.5828 76.3184C49.1531 76.3053 48.7885 76.4128 48.4891 76.6406C48.1896 76.862 47.9975 77.1842 47.9129 77.6074L45.1492 77.6172C45.1948 76.6081 45.657 75.791 46.5359 75.166C47.4214 74.5345 48.5118 74.2253 49.8074 74.2383C51.0053 74.2643 51.9428 74.6224 52.6199 75.3125C53.297 75.9961 53.5802 76.8783 53.4695 77.959L52.659 83.0176L52.6102 83.6426C52.5971 84.1048 52.6525 84.4954 52.7762 84.8145L52.7664 85H50.0613ZM47.9422 83.0566C48.7365 83.0827 49.4298 82.7376 50.0223 82.0215L50.3641 80.1953L49.407 80.1855C48.3914 80.2116 47.659 80.5208 47.2098 81.1133C47.047 81.3281 46.9461 81.5918 46.907 81.9043C46.8549 82.2559 46.9266 82.5358 47.1219 82.7441C47.3237 82.946 47.5971 83.0501 47.9422 83.0566ZM63.4922 77.0801C63.1146 77.015 62.8053 76.9824 62.5645 76.9824C61.5814 76.9564 60.8034 77.3242 60.2305 78.0859L59.0098 85H56.2559L58.0918 74.4336L60.6797 74.4238L60.4258 75.7129C61.0898 74.7168 61.9102 74.2188 62.8867 74.2188C63.1602 74.2188 63.4792 74.2643 63.8438 74.3555L63.4922 77.0801ZM72.4797 77.0801C72.1021 77.015 71.7928 76.9824 71.552 76.9824C70.5689 76.9564 69.7909 77.3242 69.218 78.0859L67.9973 85H65.2434L67.0793 74.4336L69.6672 74.4238L69.4133 75.7129C70.0773 74.7168 70.8977 74.2188 71.8742 74.2188C72.1477 74.2188 72.4667 74.2643 72.8313 74.3555L72.4797 77.0801ZM79.9242 74.2383C80.8552 74.2513 81.656 74.4922 82.3266 74.9609C83.0036 75.4232 83.4984 76.0645 83.8109 76.8848C84.1299 77.6986 84.2439 78.6035 84.1527 79.5996C84.003 81.2793 83.4171 82.64 82.3949 83.6816C81.3793 84.7168 80.1228 85.2214 78.6254 85.1953C77.7074 85.1823 76.9131 84.9479 76.2426 84.4922C75.572 84.0299 75.0772 83.3919 74.7582 82.5781C74.4392 81.7643 74.3253 80.8659 74.4164 79.8828C74.5857 78.138 75.1781 76.7513 76.1937 75.7227C77.2094 74.694 78.4529 74.1992 79.9242 74.2383ZM77.141 80.8887C77.154 81.5137 77.3005 82.0085 77.5805 82.373C77.8604 82.7311 78.2543 82.9167 78.7621 82.9297C79.6085 82.9557 80.2725 82.5684 80.7543 81.7676C81.2361 80.9603 81.4607 79.9023 81.4281 78.5938C81.4021 77.9688 81.2491 77.4707 80.9691 77.0996C80.6957 76.722 80.3018 76.5267 79.7875 76.5137C78.9672 76.4876 78.3096 76.875 77.8148 77.6758C77.3266 78.4701 77.102 79.541 77.141 80.8887ZM96.2945 81.1523L98.8043 74.4336H101.548L97.1051 85H94.8004L94.0191 78.3887L90.9332 85H88.6285L87.8473 74.4336H90.4254L90.5914 81.084L93.609 74.4336H95.6012L96.2945 81.1523ZM114.221 80.791L112.941 81.9043L112.404 85H109.65L112.248 70H115.012L113.586 78.1445L114.123 77.5684L117.258 74.4336H120.793L116.174 78.9746L119.113 85H116.096L114.221 80.791ZM126.743 85.1953C125.819 85.1888 124.999 84.9642 124.282 84.5215C123.573 84.0723 123.042 83.4603 122.691 82.6855C122.339 81.9043 122.202 81.0449 122.28 80.1074L122.31 79.7168C122.407 78.6882 122.707 77.7441 123.208 76.8848C123.71 76.0254 124.354 75.3646 125.142 74.9023C125.93 74.4336 126.802 74.2122 127.759 74.2383C129.12 74.2643 130.148 74.7656 130.845 75.7422C131.548 76.7122 131.815 77.9427 131.646 79.4336L131.489 80.6348H125.015C124.989 81.3184 125.155 81.8652 125.513 82.2754C125.871 82.6855 126.359 82.8971 126.978 82.9102C127.98 82.9362 128.859 82.5488 129.614 81.748L130.874 83.3105C130.477 83.9095 129.904 84.3783 129.155 84.7168C128.407 85.0488 127.603 85.2083 126.743 85.1953ZM127.622 76.5137C127.114 76.5007 126.662 76.6602 126.265 76.9922C125.874 77.3242 125.523 77.9004 125.21 78.7207H128.999L129.058 78.4668C129.097 78.2064 129.1 77.959 129.068 77.7246C129.002 77.347 128.843 77.054 128.589 76.8457C128.335 76.6309 128.013 76.5202 127.622 76.5137ZM138.455 80.9766L141.473 74.4336H144.539L138.358 86.5918C137.915 87.5228 137.394 88.2064 136.795 88.6426C136.203 89.0788 135.516 89.2969 134.735 89.2969C134.429 89.2969 133.986 89.2285 133.407 89.0918L133.612 86.9434L133.993 86.9629C134.891 86.9889 135.549 86.6602 135.965 85.9766L136.571 84.8535L134.842 74.4336H137.694L138.455 80.9766ZM151.74 82.0215C151.844 81.5007 151.483 81.123 150.656 80.8887L149.767 80.6641C147.664 80.0846 146.642 79.0625 146.701 77.5977C146.733 76.6016 147.173 75.791 148.019 75.166C148.872 74.5345 149.897 74.2253 151.095 74.2383C152.287 74.2513 153.25 74.5671 153.986 75.1855C154.722 75.804 155.096 76.6276 155.109 77.6562L152.375 77.6465C152.388 76.7415 151.938 76.2826 151.027 76.2695C150.597 76.2695 150.223 76.377 149.904 76.5918C149.591 76.8066 149.399 77.0964 149.328 77.4609C149.23 77.9818 149.624 78.3496 150.509 78.5645L150.9 78.6523C151.798 78.8672 152.485 79.1146 152.961 79.3945C153.436 79.668 153.8 80.0098 154.054 80.4199C154.315 80.8301 154.435 81.3216 154.416 81.8945C154.396 82.5651 154.178 83.151 153.761 83.6523C153.351 84.1536 152.785 84.541 152.062 84.8145C151.346 85.0879 150.591 85.2148 149.796 85.1953C148.625 85.1823 147.648 84.847 146.867 84.1895C146.086 83.5254 145.688 82.6693 145.675 81.6211L148.273 81.6406C148.299 82.6497 148.839 83.1608 149.894 83.1738C150.402 83.1738 150.819 83.0697 151.144 82.8613C151.476 82.653 151.675 82.373 151.74 82.0215ZM169.822 71.8359L169.363 74.4336H171.121L170.76 76.5039H169.002L168.104 81.7969C168.064 82.1289 168.09 82.3828 168.182 82.5586C168.273 82.7344 168.494 82.8288 168.846 82.8418C168.95 82.8483 169.23 82.832 169.686 82.793L169.49 84.9512C169.002 85.1139 168.475 85.1888 167.908 85.1758C167.003 85.1628 166.329 84.8796 165.887 84.3262C165.444 83.7728 165.262 83.0241 165.34 82.0801L166.248 76.5039H164.754L165.115 74.4336H166.609L167.059 71.8359H169.822ZM178.448 74.2383C179.379 74.2513 180.18 74.4922 180.851 74.9609C181.528 75.4232 182.023 76.0645 182.335 76.8848C182.654 77.6986 182.768 78.6035 182.677 79.5996C182.527 81.2793 181.941 82.64 180.919 83.6816C179.904 84.7168 178.647 85.2214 177.15 85.1953C176.232 85.1823 175.437 84.9479 174.767 84.4922C174.096 84.0299 173.601 83.3919 173.282 82.5781C172.963 81.7643 172.849 80.8659 172.941 79.8828C173.11 78.138 173.702 76.7513 174.718 75.7227C175.734 74.694 176.977 74.1992 178.448 74.2383ZM175.665 80.8887C175.678 81.5137 175.825 82.0085 176.105 82.373C176.385 82.7311 176.779 82.9167 177.286 82.9297C178.133 82.9557 178.797 82.5684 179.279 81.7676C179.76 80.9603 179.985 79.9023 179.952 78.5938C179.926 77.9688 179.773 77.4707 179.493 77.0996C179.22 76.722 178.826 76.5267 178.312 76.5137C177.491 76.4876 176.834 76.875 176.339 77.6758C175.851 78.4701 175.626 79.541 175.665 80.8887ZM196.375 74.4238L196.14 75.6738C196.987 74.6908 198.012 74.2122 199.216 74.2383C200.212 74.2578 200.948 74.6224 201.423 75.332C201.899 76.0417 202.071 77.0247 201.941 78.2812L200.828 85H198.074L199.207 78.252C199.239 77.998 199.246 77.7669 199.226 77.5586C199.142 76.8945 198.725 76.5527 197.976 76.5332C197.254 76.5072 196.606 76.8424 196.033 77.5391L194.714 85H191.961L193.796 74.4336L196.375 74.4238ZM210.909 85C210.824 84.7331 210.789 84.4141 210.802 84.043C210.007 84.8372 209.109 85.2214 208.106 85.1953C207.182 85.1823 206.414 84.8828 205.802 84.2969C205.196 83.7044 204.913 82.9753 204.952 82.1094C204.998 80.957 205.479 80.0749 206.397 79.4629C207.322 78.8444 208.559 78.5352 210.108 78.5352L211.397 78.5547L211.534 77.9199C211.573 77.7051 211.583 77.5 211.563 77.3047C211.531 76.9987 211.414 76.7611 211.212 76.5918C211.016 76.416 210.756 76.3249 210.43 76.3184C210.001 76.3053 209.636 76.4128 209.337 76.6406C209.037 76.862 208.845 77.1842 208.761 77.6074L205.997 77.6172C206.042 76.6081 206.505 75.791 207.384 75.166C208.269 74.5345 209.36 74.2253 210.655 74.2383C211.853 74.2643 212.79 74.6224 213.468 75.3125C214.145 75.9961 214.428 76.8783 214.317 77.959L213.507 83.0176L213.458 83.6426C213.445 84.1048 213.5 84.4954 213.624 84.8145L213.614 85H210.909ZM208.79 83.0566C209.584 83.0827 210.277 82.7376 210.87 82.0215L211.212 80.1953L210.255 80.1855C209.239 80.2116 208.507 80.5208 208.057 81.1133C207.895 81.3281 207.794 81.5918 207.755 81.9043C207.703 82.2559 207.774 82.5358 207.97 82.7441C208.171 82.946 208.445 83.0501 208.79 83.0566ZM221.391 81.5137L224.398 74.4336H227.367L222.26 85H219.623L217.816 74.4336H220.609L221.391 81.5137ZM231.56 85H228.786L230.622 74.4336H233.396L231.56 85ZM230.945 71.748C230.932 71.3118 231.075 70.9505 231.374 70.6641C231.674 70.3776 232.035 70.2344 232.458 70.2344C232.875 70.2214 233.236 70.3483 233.542 70.6152C233.848 70.8822 234.008 71.2272 234.021 71.6504C234.034 72.054 233.897 72.4056 233.611 72.7051C233.331 73.0046 232.963 73.1608 232.507 73.1738C232.097 73.1868 231.736 73.0632 231.423 72.8027C231.117 72.5423 230.958 72.1908 230.945 71.748ZM236.231 79.707C236.426 78.0729 236.957 76.748 237.823 75.7324C238.695 74.7103 239.792 74.209 241.114 74.2285C242.24 74.2546 243.08 74.6615 243.633 75.4492L243.995 74.4238L246.524 74.4336L244.795 84.6387C244.607 86.0449 244.008 87.1582 242.998 87.9785C241.989 88.7988 240.739 89.196 239.248 89.1699C238.519 89.1569 237.823 88.9974 237.159 88.6914C236.495 88.3919 235.948 87.9785 235.518 87.4512L236.885 85.7715C237.497 86.5462 238.265 86.9466 239.19 86.9727C239.906 86.9987 240.518 86.8099 241.026 86.4062C241.534 86.0091 241.879 85.446 242.061 84.7168L242.217 84.082C241.449 84.8503 240.586 85.2214 239.629 85.1953C238.601 85.1823 237.784 84.8014 237.178 84.0527C236.573 83.2975 236.241 82.3177 236.182 81.1133C236.163 80.7161 236.179 80.2474 236.231 79.707ZM238.936 80.8594C238.936 81.4714 239.063 81.9629 239.317 82.334C239.577 82.6986 239.952 82.8906 240.44 82.9102C241.189 82.9362 241.853 82.6172 242.432 81.9531L243.252 77.4805C242.972 76.8685 242.455 76.5495 241.7 76.5234C240.996 76.5039 240.401 76.7871 239.913 77.373C239.424 77.959 239.118 78.737 238.995 79.707C238.949 80.1823 238.929 80.5664 238.936 80.8594ZM254.789 85C254.704 84.7331 254.668 84.4141 254.681 84.043C253.887 84.8372 252.989 85.2214 251.986 85.1953C251.061 85.1823 250.293 84.8828 249.681 84.2969C249.076 83.7044 248.793 82.9753 248.832 82.1094C248.877 80.957 249.359 80.0749 250.277 79.4629C251.201 78.8444 252.438 78.5352 253.988 78.5352L255.277 78.5547L255.414 77.9199C255.453 77.7051 255.462 77.5 255.443 77.3047C255.41 76.9987 255.293 76.7611 255.091 76.5918C254.896 76.416 254.636 76.3249 254.31 76.3184C253.88 76.3053 253.516 76.4128 253.216 76.6406C252.917 76.862 252.725 77.1842 252.64 77.6074L249.877 77.6172C249.922 76.6081 250.384 75.791 251.263 75.166C252.149 74.5345 253.239 74.2253 254.535 74.2383C255.733 74.2643 256.67 74.6224 257.347 75.3125C258.024 75.9961 258.308 76.8783 258.197 77.959L257.386 83.0176L257.337 83.6426C257.324 84.1048 257.38 84.4954 257.504 84.8145L257.494 85H254.789ZM252.67 83.0566C253.464 83.0827 254.157 82.7376 254.75 82.0215L255.091 80.1953L254.134 80.1855C253.119 80.2116 252.386 80.5208 251.937 81.1133C251.774 81.3281 251.673 81.5918 251.634 81.9043C251.582 82.2559 251.654 82.5358 251.849 82.7441C252.051 82.946 252.324 83.0501 252.67 83.0566ZM266.569 71.8359L266.11 74.4336H267.868L267.507 76.5039H265.749L264.85 81.7969C264.811 82.1289 264.837 82.3828 264.929 82.5586C265.02 82.7344 265.241 82.8288 265.593 82.8418C265.697 82.8483 265.977 82.832 266.432 82.793L266.237 84.9512C265.749 85.1139 265.221 85.1888 264.655 85.1758C263.75 85.1628 263.076 84.8796 262.634 84.3262C262.191 83.7728 262.009 83.0241 262.087 82.0801L262.995 76.5039H261.501L261.862 74.4336H263.356L263.805 71.8359H266.569ZM274.463 85.1953C273.538 85.1888 272.718 84.9642 272.002 84.5215C271.292 84.0723 270.762 83.4603 270.41 82.6855C270.059 81.9043 269.922 81.0449 270 80.1074L270.029 79.7168C270.127 78.6882 270.426 77.7441 270.928 76.8848C271.429 76.0254 272.074 75.3646 272.861 74.9023C273.649 74.4336 274.521 74.2122 275.479 74.2383C276.839 74.2643 277.868 74.7656 278.564 75.7422C279.268 76.7122 279.535 77.9427 279.365 79.4336L279.209 80.6348H272.734C272.708 81.3184 272.874 81.8652 273.232 82.2754C273.59 82.6855 274.079 82.8971 274.697 82.9102C275.7 82.9362 276.579 82.5488 277.334 81.748L278.594 83.3105C278.197 83.9095 277.624 84.3783 276.875 84.7168C276.126 85.0488 275.322 85.2083 274.463 85.1953ZM275.342 76.5137C274.834 76.5007 274.382 76.6602 273.984 76.9922C273.594 77.3242 273.242 77.9004 272.93 78.7207H276.719L276.777 78.4668C276.816 78.2064 276.82 77.959 276.787 77.7246C276.722 77.347 276.562 77.054 276.309 76.8457C276.055 76.6309 275.732 76.5202 275.342 76.5137Z" fill="white"/>
<rect x="151" width="58" height="58" rx="6" fill="white"/>
<path d="M192.914 30.8839C193.402 30.3957 193.402 29.6043 192.914 29.1161L184.959 21.1612C184.471 20.673 183.679 20.673 183.191 21.1612C182.703 21.6493 182.703 22.4408 183.191 22.9289L190.262 30L183.191 37.0711C182.703 37.5592 182.703 38.3507 183.191 38.8388C183.679 39.327 184.471 39.327 184.959 38.8388L192.914 30.8839ZM167.97 31.25H192.03V28.75H167.97V31.25Z" fill="#312F4D"/>
<rect x="70" width="58" height="58" rx="6" fill="white"/>
<path d="M86.0861 29.1161C85.598 29.6043 85.598 30.3957 86.0861 30.8839L94.0411 38.8388C94.5293 39.327 95.3207 39.327 95.8089 38.8388C96.297 38.3507 96.297 37.5592 95.8089 37.0711L88.7378 30L95.8089 22.9289C96.297 22.4408 96.297 21.6493 95.8089 21.1612C95.3207 20.673 94.5293 20.673 94.0411 21.1612L86.0861 29.1161ZM111.03 28.75L86.97 28.75V31.25L111.03 31.25V28.75Z" fill="#312F4D"/>
<path d="M56.9137 110.797C56.8044 111.682 56.5726 112.469 56.2184 113.156C55.8643 113.844 55.4242 114.354 54.8981 114.688C54.3721 115.021 53.7887 115.18 53.1481 115.164C52.3304 115.143 51.6846 114.839 51.2106 114.25L50.4372 118.25H48.2341L50.2575 106.547L52.2887 106.539L52.1403 107.391C52.7497 106.703 53.4684 106.37 54.2966 106.391C55.1247 106.411 55.7679 106.714 56.2262 107.297C56.6846 107.875 56.9294 108.661 56.9606 109.656C56.971 109.979 56.9554 110.359 56.9137 110.797ZM54.7262 110.633L54.7731 109.883C54.7835 109.378 54.6898 108.977 54.4919 108.68C54.2992 108.383 54.0153 108.229 53.6403 108.219C52.9997 108.198 52.471 108.469 52.0544 109.031L51.4216 112.516C51.6143 113.042 52.0283 113.315 52.6637 113.336C53.195 113.352 53.6377 113.146 53.9919 112.719C54.346 112.292 54.5908 111.596 54.7262 110.633ZM64.8381 108.664C64.536 108.612 64.2886 108.586 64.0959 108.586C63.3095 108.565 62.6871 108.859 62.2287 109.469L61.2522 115H59.0491L60.5178 106.547L62.5881 106.539L62.385 107.57C62.9162 106.773 63.5725 106.375 64.3537 106.375C64.5725 106.375 64.8277 106.411 65.1194 106.484L64.8381 108.664ZM70.0984 115.156C69.3588 115.151 68.7026 114.971 68.1297 114.617C67.562 114.258 67.1375 113.768 66.8562 113.148C66.575 112.523 66.4656 111.836 66.5281 111.086L66.5516 110.773C66.6297 109.951 66.8693 109.195 67.2703 108.508C67.6713 107.82 68.187 107.292 68.8172 106.922C69.4474 106.547 70.1453 106.37 70.9109 106.391C71.9995 106.411 72.8224 106.812 73.3797 107.594C73.9422 108.37 74.1557 109.354 74.0203 110.547L73.8953 111.508H68.7156C68.6948 112.055 68.8276 112.492 69.1141 112.82C69.4005 113.148 69.7911 113.318 70.2859 113.328C71.088 113.349 71.7911 113.039 72.3953 112.398L73.4031 113.648C73.0854 114.128 72.6271 114.503 72.0281 114.773C71.4292 115.039 70.7859 115.167 70.0984 115.156ZM70.8016 108.211C70.3953 108.201 70.0333 108.328 69.7156 108.594C69.4031 108.859 69.1219 109.32 68.8719 109.977H71.9031L71.95 109.773C71.9812 109.565 71.9838 109.367 71.9578 109.18C71.9057 108.878 71.7781 108.643 71.575 108.477C71.3719 108.305 71.1141 108.216 70.8016 108.211ZM80.89 112.617C80.9733 112.201 80.6843 111.898 80.0228 111.711L79.3119 111.531C77.6296 111.068 76.8119 110.25 76.8587 109.078C76.8848 108.281 77.2363 107.633 77.9134 107.133C78.5957 106.628 79.416 106.38 80.3744 106.391C81.3275 106.401 82.0983 106.654 82.6869 107.148C83.2754 107.643 83.5749 108.302 83.5853 109.125L81.3978 109.117C81.4082 108.393 81.0488 108.026 80.3197 108.016C79.9759 108.016 79.6765 108.102 79.4212 108.273C79.1712 108.445 79.0176 108.677 78.9603 108.969C78.8822 109.385 79.1973 109.68 79.9056 109.852L80.2181 109.922C80.9369 110.094 81.4863 110.292 81.8666 110.516C82.2468 110.734 82.5384 111.008 82.7416 111.336C82.9499 111.664 83.0462 112.057 83.0306 112.516C83.015 113.052 82.8405 113.521 82.5072 113.922C82.1791 114.323 81.7259 114.633 81.1478 114.852C80.5749 115.07 79.9707 115.172 79.3353 115.156C78.3978 115.146 77.6166 114.878 76.9916 114.352C76.3666 113.82 76.0488 113.135 76.0384 112.297L78.1166 112.312C78.1374 113.12 78.5697 113.529 79.4134 113.539C79.8197 113.539 80.153 113.456 80.4134 113.289C80.6791 113.122 80.8379 112.898 80.89 112.617ZM90.3925 112.617C90.4758 112.201 90.1868 111.898 89.5253 111.711L88.8144 111.531C87.1321 111.068 86.3144 110.25 86.3612 109.078C86.3873 108.281 86.7388 107.633 87.4159 107.133C88.0982 106.628 88.9185 106.38 89.8769 106.391C90.83 106.401 91.6008 106.654 92.1894 107.148C92.7779 107.643 93.0774 108.302 93.0878 109.125L90.9003 109.117C90.9107 108.393 90.5513 108.026 89.8222 108.016C89.4784 108.016 89.179 108.102 88.9237 108.273C88.6737 108.445 88.5201 108.677 88.4628 108.969C88.3847 109.385 88.6998 109.68 89.4081 109.852L89.7206 109.922C90.4394 110.094 90.9888 110.292 91.3691 110.516C91.7493 110.734 92.0409 111.008 92.2441 111.336C92.4524 111.664 92.5487 112.057 92.5331 112.516C92.5175 113.052 92.343 113.521 92.0097 113.922C91.6816 114.323 91.2284 114.633 90.6503 114.852C90.0774 115.07 89.4732 115.172 88.8378 115.156C87.9003 115.146 87.1191 114.878 86.4941 114.352C85.8691 113.82 85.5513 113.135 85.5409 112.297L87.6191 112.312C87.6399 113.12 88.0722 113.529 88.9159 113.539C89.3222 113.539 89.6555 113.456 89.9159 113.289C90.1816 113.122 90.3404 112.898 90.3925 112.617ZM105.28 115C105.213 114.786 105.184 114.531 105.194 114.234C104.559 114.87 103.84 115.177 103.038 115.156C102.299 115.146 101.684 114.906 101.194 114.438C100.71 113.964 100.483 113.38 100.515 112.688C100.551 111.766 100.937 111.06 101.671 110.57C102.411 110.076 103.4 109.828 104.64 109.828L105.671 109.844L105.78 109.336C105.812 109.164 105.819 109 105.804 108.844C105.778 108.599 105.684 108.409 105.522 108.273C105.366 108.133 105.158 108.06 104.897 108.055C104.554 108.044 104.262 108.13 104.022 108.312C103.783 108.49 103.629 108.747 103.562 109.086L101.351 109.094C101.387 108.286 101.757 107.633 102.46 107.133C103.168 106.628 104.041 106.38 105.077 106.391C106.036 106.411 106.786 106.698 107.327 107.25C107.869 107.797 108.095 108.503 108.007 109.367L107.358 113.414L107.319 113.914C107.309 114.284 107.353 114.596 107.452 114.852L107.444 115H105.28ZM103.585 113.445C104.22 113.466 104.775 113.19 105.249 112.617L105.522 111.156L104.757 111.148C103.944 111.169 103.358 111.417 102.999 111.891C102.869 112.062 102.788 112.273 102.757 112.523C102.715 112.805 102.772 113.029 102.929 113.195C103.09 113.357 103.309 113.44 103.585 113.445ZM113.72 106.539L113.533 107.539C114.21 106.753 115.03 106.37 115.994 106.391C116.791 106.406 117.379 106.698 117.759 107.266C118.14 107.833 118.278 108.62 118.173 109.625L117.283 115H115.08L115.986 109.602C116.012 109.398 116.017 109.214 116.002 109.047C115.934 108.516 115.601 108.242 115.002 108.227C114.423 108.206 113.905 108.474 113.447 109.031L112.392 115H110.189L111.658 106.547L113.72 106.539ZM124.043 111.781L126.457 106.547H128.91L123.965 116.273C123.611 117.018 123.194 117.565 122.715 117.914C122.241 118.263 121.692 118.438 121.067 118.438C120.822 118.438 120.468 118.383 120.004 118.273L120.168 116.555L120.473 116.57C121.192 116.591 121.718 116.328 122.051 115.781L122.535 114.883L121.152 106.547H123.434L124.043 111.781ZM138.822 111.633L137.798 112.523L137.368 115H135.165L137.243 103H139.454L138.314 109.516L138.743 109.055L141.251 106.547H144.079L140.384 110.18L142.736 115H140.322L138.822 111.633ZM148.84 115.156C148.1 115.151 147.444 114.971 146.871 114.617C146.303 114.258 145.879 113.768 145.597 113.148C145.316 112.523 145.207 111.836 145.269 111.086L145.293 110.773C145.371 109.951 145.611 109.195 146.012 108.508C146.413 107.82 146.928 107.292 147.558 106.922C148.189 106.547 148.887 106.37 149.652 106.391C150.741 106.411 151.564 106.812 152.121 107.594C152.683 108.37 152.897 109.354 152.762 110.547L152.637 111.508H147.457C147.436 112.055 147.569 112.492 147.855 112.82C148.142 113.148 148.532 113.318 149.027 113.328C149.829 113.349 150.532 113.039 151.137 112.398L152.144 113.648C151.827 114.128 151.368 114.503 150.769 114.773C150.17 115.039 149.527 115.167 148.84 115.156ZM149.543 108.211C149.137 108.201 148.775 108.328 148.457 108.594C148.144 108.859 147.863 109.32 147.613 109.977H150.644L150.691 109.773C150.722 109.565 150.725 109.367 150.699 109.18C150.647 108.878 150.519 108.643 150.316 108.477C150.113 108.305 149.855 108.216 149.543 108.211ZM158.209 111.781L160.623 106.547H163.077L158.131 116.273C157.777 117.018 157.36 117.565 156.881 117.914C156.407 118.263 155.858 118.438 155.233 118.438C154.988 118.438 154.634 118.383 154.17 118.273L154.334 116.555L154.639 116.57C155.358 116.591 155.884 116.328 156.217 115.781L156.702 114.883L155.319 106.547H157.6L158.209 111.781ZM173.8 104.469L173.433 106.547H174.839L174.55 108.203H173.144L172.425 112.438C172.394 112.703 172.415 112.906 172.488 113.047C172.561 113.188 172.738 113.263 173.019 113.273C173.102 113.279 173.326 113.266 173.691 113.234L173.535 114.961C173.144 115.091 172.722 115.151 172.269 115.141C171.545 115.13 171.006 114.904 170.652 114.461C170.298 114.018 170.152 113.419 170.214 112.664L170.941 108.203H169.746L170.035 106.547H171.23L171.589 104.469H173.8ZM180.701 106.391C181.446 106.401 182.087 106.594 182.623 106.969C183.165 107.339 183.561 107.852 183.811 108.508C184.066 109.159 184.157 109.883 184.084 110.68C183.964 112.023 183.496 113.112 182.678 113.945C181.865 114.773 180.86 115.177 179.662 115.156C178.928 115.146 178.292 114.958 177.756 114.594C177.219 114.224 176.824 113.714 176.568 113.062C176.313 112.411 176.222 111.693 176.295 110.906C176.43 109.51 176.904 108.401 177.717 107.578C178.529 106.755 179.524 106.359 180.701 106.391ZM178.475 111.711C178.485 112.211 178.602 112.607 178.826 112.898C179.05 113.185 179.365 113.333 179.772 113.344C180.449 113.365 180.98 113.055 181.365 112.414C181.751 111.768 181.93 110.922 181.904 109.875C181.884 109.375 181.761 108.977 181.537 108.68C181.318 108.378 181.003 108.221 180.592 108.211C179.936 108.19 179.41 108.5 179.014 109.141C178.623 109.776 178.443 110.633 178.475 111.711ZM196.456 112.617C196.54 112.201 196.251 111.898 195.589 111.711L194.878 111.531C193.196 111.068 192.378 110.25 192.425 109.078C192.451 108.281 192.803 107.633 193.48 107.133C194.162 106.628 194.982 106.38 195.941 106.391C196.894 106.401 197.665 106.654 198.253 107.148C198.842 107.643 199.141 108.302 199.152 109.125L196.964 109.117C196.974 108.393 196.615 108.026 195.886 108.016C195.542 108.016 195.243 108.102 194.987 108.273C194.737 108.445 194.584 108.677 194.527 108.969C194.448 109.385 194.764 109.68 195.472 109.852L195.784 109.922C196.503 110.094 197.053 110.292 197.433 110.516C197.813 110.734 198.105 111.008 198.308 111.336C198.516 111.664 198.612 112.057 198.597 112.516C198.581 113.052 198.407 113.521 198.073 113.922C197.745 114.323 197.292 114.633 196.714 114.852C196.141 115.07 195.537 115.172 194.902 115.156C193.964 115.146 193.183 114.878 192.558 114.352C191.933 113.82 191.615 113.135 191.605 112.297L193.683 112.312C193.704 113.12 194.136 113.529 194.98 113.539C195.386 113.539 195.719 113.456 195.98 113.289C196.245 113.122 196.404 112.898 196.456 112.617ZM205.529 104.469L205.162 106.547H206.568L206.279 108.203H204.873L204.154 112.438C204.123 112.703 204.144 112.906 204.217 113.047C204.289 113.188 204.467 113.263 204.748 113.273C204.831 113.279 205.055 113.266 205.42 113.234L205.263 114.961C204.873 115.091 204.451 115.151 203.998 115.141C203.274 115.13 202.735 114.904 202.381 114.461C202.026 114.018 201.881 113.419 201.943 112.664L202.67 108.203H201.474L201.763 106.547H202.959L203.318 104.469H205.529ZM212.719 115C212.651 114.786 212.623 114.531 212.633 114.234C211.998 114.87 211.279 115.177 210.477 115.156C209.737 115.146 209.123 114.906 208.633 114.438C208.149 113.964 207.922 113.38 207.953 112.688C207.99 111.766 208.375 111.06 209.11 110.57C209.849 110.076 210.839 109.828 212.078 109.828L213.11 109.844L213.219 109.336C213.25 109.164 213.258 109 213.242 108.844C213.216 108.599 213.123 108.409 212.961 108.273C212.805 108.133 212.597 108.06 212.336 108.055C211.992 108.044 211.701 108.13 211.461 108.312C211.222 108.49 211.068 108.747 211 109.086L208.789 109.094C208.826 108.286 209.196 107.633 209.899 107.133C210.607 106.628 211.479 106.38 212.516 106.391C213.474 106.411 214.224 106.698 214.766 107.25C215.308 107.797 215.534 108.503 215.446 109.367L214.797 113.414L214.758 113.914C214.748 114.284 214.792 114.596 214.891 114.852L214.883 115H212.719ZM211.024 113.445C211.659 113.466 212.214 113.19 212.688 112.617L212.961 111.156L212.196 111.148C211.383 111.169 210.797 111.417 210.438 111.891C210.308 112.062 210.227 112.273 210.196 112.523C210.154 112.805 210.211 113.029 210.367 113.195C210.529 113.357 210.748 113.44 211.024 113.445ZM223.464 108.664C223.162 108.612 222.914 108.586 222.722 108.586C221.935 108.565 221.313 108.859 220.854 109.469L219.878 115H217.675L219.143 106.547L221.214 106.539L221.011 107.57C221.542 106.773 222.198 106.375 222.979 106.375C223.198 106.375 223.453 106.411 223.745 106.484L223.464 108.664ZM229.724 104.469L229.357 106.547H230.763L230.474 108.203H229.068L228.349 112.438C228.318 112.703 228.339 112.906 228.412 113.047C228.484 113.188 228.662 113.263 228.943 113.273C229.026 113.279 229.25 113.266 229.615 113.234L229.458 114.961C229.068 115.091 228.646 115.151 228.193 115.141C227.469 115.13 226.93 114.904 226.576 114.461C226.221 114.018 226.076 113.419 226.138 112.664L226.865 108.203H225.669L225.958 106.547H227.154L227.513 104.469H229.724Z" fill="white"/>
</svg>
