<svg width="280" height="90" viewBox="0 0 280 90" fill="none" xmlns="http://www.w3.org/2000/svg">
<path d="M6.72852 83.9062C5.94727 84.7852 4.97721 85.2148 3.81836 85.1953C2.80273 85.1823 2.03451 84.8177 1.51367 84.1016C0.992839 83.3854 0.791016 82.4414 0.908203 81.2695L2.05078 74.4336H4.80469L3.64258 81.2988C3.61654 81.5137 3.61328 81.7155 3.63281 81.9043C3.69792 82.5553 4.05924 82.8906 4.7168 82.9102C5.56966 82.9362 6.27604 82.6074 6.83594 81.9238L8.1543 74.4336H10.9277L9.0918 85H6.52344L6.72852 83.9062ZM19.0656 82.0215C19.1698 81.5007 18.8085 81.123 17.9816 80.8887L17.093 80.6641C14.9901 80.0846 13.968 79.0625 14.0266 77.5977C14.0591 76.6016 14.4986 75.791 15.3449 75.166C16.1978 74.5345 17.2232 74.2253 18.4211 74.2383C19.6125 74.2513 20.576 74.5671 21.3117 75.1855C22.0474 75.804 22.4217 76.6276 22.4348 77.6562L19.7004 77.6465C19.7134 76.7415 19.2642 76.2826 18.3527 76.2695C17.923 76.2695 17.5487 76.377 17.2297 76.5918C16.9172 76.8066 16.7251 77.0964 16.6535 77.4609C16.5559 77.9818 16.9497 78.3496 17.8352 78.5645L18.2258 78.6523C19.1242 78.8672 19.8111 79.1146 20.2863 79.3945C20.7616 79.668 21.1262 80.0098 21.3801 80.4199C21.6405 80.8301 21.7609 81.3216 21.7414 81.8945C21.7219 82.5651 21.5038 83.151 21.0871 83.6523C20.677 84.1536 20.1105 84.541 19.3879 84.8145C18.6717 85.0879 17.9165 85.2148 17.1223 85.1953C15.9504 85.1823 14.9738 84.847 14.1926 84.1895C13.4113 83.5254 13.0142 82.6693 13.0012 81.6211L15.5988 81.6406C15.6249 82.6497 16.1652 83.1608 17.2199 83.1738C17.7277 83.1738 18.1444 83.0697 18.4699 82.8613C18.802 82.653 19.0005 82.373 19.0656 82.0215ZM29.8402 85.1953C28.9158 85.1888 28.0954 84.9642 27.3793 84.5215C26.6697 84.0723 26.1391 83.4603 25.7875 82.6855C25.4359 81.9043 25.2992 81.0449 25.3773 80.1074L25.4066 79.7168C25.5043 78.6882 25.8038 77.7441 26.3051 76.8848C26.8064 76.0254 27.4509 75.3646 28.2387 74.9023C29.0264 74.4336 29.8988 74.2122 30.8559 74.2383C32.2165 74.2643 33.2452 74.7656 33.9418 75.7422C34.6449 76.7122 34.9118 77.9427 34.7426 79.4336L34.5863 80.6348H28.1117C28.0857 81.3184 28.2517 81.8652 28.6098 82.2754C28.9678 82.6855 29.4561 82.8971 30.0746 82.9102C31.0772 82.9362 31.9561 82.5488 32.7113 81.748L33.9711 83.3105C33.574 83.9095 33.001 84.3783 32.2523 84.7168C31.5036 85.0488 30.6996 85.2083 29.8402 85.1953ZM30.7191 76.5137C30.2113 76.5007 29.7589 76.6602 29.3617 76.9922C28.9711 77.3242 28.6195 77.9004 28.307 78.7207H32.0961L32.1547 78.4668C32.1938 78.2064 32.197 77.959 32.1645 77.7246C32.0993 77.347 31.9398 77.054 31.6859 76.8457C31.432 76.6309 31.1098 76.5202 30.7191 76.5137ZM50.0613 85C49.9767 84.7331 49.9409 84.4141 49.9539 84.043C49.1596 84.8372 48.2612 85.2214 47.2586 85.1953C46.3341 85.1823 45.5659 84.8828 44.9539 84.2969C44.3484 83.7044 44.0652 82.9753 44.1043 82.1094C44.1499 80.957 44.6316 80.0749 45.5496 79.4629C46.4741 78.8444 47.7111 78.5352 49.2605 78.5352L50.5496 78.5547L50.6863 77.9199C50.7254 77.7051 50.7352 77.5 50.7156 77.3047C50.6831 76.9987 50.5659 76.7611 50.3641 76.5918C50.1688 76.416 49.9083 76.3249 49.5828 76.3184C49.1531 76.3053 48.7885 76.4128 48.4891 76.6406C48.1896 76.862 47.9975 77.1842 47.9129 77.6074L45.1492 77.6172C45.1948 76.6081 45.657 75.791 46.5359 75.166C47.4214 74.5345 48.5118 74.2253 49.8074 74.2383C51.0053 74.2643 51.9428 74.6224 52.6199 75.3125C53.297 75.9961 53.5802 76.8783 53.4695 77.959L52.659 83.0176L52.6102 83.6426C52.5971 84.1048 52.6525 84.4954 52.7762 84.8145L52.7664 85H50.0613ZM47.9422 83.0566C48.7365 83.0827 49.4298 82.7376 50.0223 82.0215L50.3641 80.1953L49.407 80.1855C48.3914 80.2116 47.659 80.5208 47.2098 81.1133C47.047 81.3281 46.9461 81.5918 46.907 81.9043C46.8549 82.2559 46.9266 82.5358 47.1219 82.7441C47.3237 82.946 47.5971 83.0501 47.9422 83.0566ZM63.4922 77.0801C63.1146 77.015 62.8053 76.9824 62.5645 76.9824C61.5814 76.9564 60.8034 77.3242 60.2305 78.0859L59.0098 85H56.2559L58.0918 74.4336L60.6797 74.4238L60.4258 75.7129C61.0898 74.7168 61.9102 74.2188 62.8867 74.2188C63.1602 74.2188 63.4792 74.2643 63.8438 74.3555L63.4922 77.0801ZM72.4797 77.0801C72.1021 77.015 71.7928 76.9824 71.552 76.9824C70.5689 76.9564 69.7909 77.3242 69.218 78.0859L67.9973 85H65.2434L67.0793 74.4336L69.6672 74.4238L69.4133 75.7129C70.0773 74.7168 70.8977 74.2188 71.8742 74.2188C72.1477 74.2188 72.4667 74.2643 72.8313 74.3555L72.4797 77.0801ZM79.9242 74.2383C80.8552 74.2513 81.656 74.4922 82.3266 74.9609C83.0036 75.4232 83.4984 76.0645 83.8109 76.8848C84.1299 77.6986 84.2439 78.6035 84.1527 79.5996C84.003 81.2793 83.4171 82.64 82.3949 83.6816C81.3793 84.7168 80.1228 85.2214 78.6254 85.1953C77.7074 85.1823 76.9131 84.9479 76.2426 84.4922C75.572 84.0299 75.0772 83.3919 74.7582 82.5781C74.4392 81.7643 74.3253 80.8659 74.4164 79.8828C74.5857 78.138 75.1781 76.7513 76.1937 75.7227C77.2094 74.694 78.4529 74.1992 79.9242 74.2383ZM77.141 80.8887C77.154 81.5137 77.3005 82.0085 77.5805 82.373C77.8604 82.7311 78.2543 82.9167 78.7621 82.9297C79.6085 82.9557 80.2725 82.5684 80.7543 81.7676C81.2361 80.9603 81.4607 79.9023 81.4281 78.5938C81.4021 77.9688 81.2491 77.4707 80.9691 77.0996C80.6957 76.722 80.3018 76.5267 79.7875 76.5137C78.9672 76.4876 78.3096 76.875 77.8148 77.6758C77.3266 78.4701 77.102 79.541 77.141 80.8887ZM96.2945 81.1523L98.8043 74.4336H101.548L97.1051 85H94.8004L94.0191 78.3887L90.9332 85H88.6285L87.8473 74.4336H90.4254L90.5914 81.084L93.609 74.4336H95.6012L96.2945 81.1523ZM114.221 80.791L112.941 81.9043L112.404 85H109.65L112.248 70H115.012L113.586 78.1445L114.123 77.5684L117.258 74.4336H120.793L116.174 78.9746L119.113 85H116.096L114.221 80.791ZM126.743 85.1953C125.819 85.1888 124.999 84.9642 124.282 84.5215C123.573 84.0723 123.042 83.4603 122.691 82.6855C122.339 81.9043 122.202 81.0449 122.28 80.1074L122.31 79.7168C122.407 78.6882 122.707 77.7441 123.208 76.8848C123.71 76.0254 124.354 75.3646 125.142 74.9023C125.93 74.4336 126.802 74.2122 127.759 74.2383C129.12 74.2643 130.148 74.7656 130.845 75.7422C131.548 76.7122 131.815 77.9427 131.646 79.4336L131.489 80.6348H125.015C124.989 81.3184 125.155 81.8652 125.513 82.2754C125.871 82.6855 126.359 82.8971 126.978 82.9102C127.98 82.9362 128.859 82.5488 129.614 81.748L130.874 83.3105C130.477 83.9095 129.904 84.3783 129.155 84.7168C128.407 85.0488 127.603 85.2083 126.743 85.1953ZM127.622 76.5137C127.114 76.5007 126.662 76.6602 126.265 76.9922C125.874 77.3242 125.523 77.9004 125.21 78.7207H128.999L129.058 78.4668C129.097 78.2064 129.1 77.959 129.068 77.7246C129.002 77.347 128.843 77.054 128.589 76.8457C128.335 76.6309 128.013 76.5202 127.622 76.5137ZM138.455 80.9766L141.473 74.4336H144.539L138.358 86.5918C137.915 87.5228 137.394 88.2064 136.795 88.6426C136.203 89.0788 135.516 89.2969 134.735 89.2969C134.429 89.2969 133.986 89.2285 133.407 89.0918L133.612 86.9434L133.993 86.9629C134.891 86.9889 135.549 86.6602 135.965 85.9766L136.571 84.8535L134.842 74.4336H137.694L138.455 80.9766ZM151.74 82.0215C151.844 81.5007 151.483 81.123 150.656 80.8887L149.767 80.6641C147.664 80.0846 146.642 79.0625 146.701 77.5977C146.733 76.6016 147.173 75.791 148.019 75.166C148.872 74.5345 149.897 74.2253 151.095 74.2383C152.287 74.2513 153.25 74.5671 153.986 75.1855C154.722 75.804 155.096 76.6276 155.109 77.6562L152.375 77.6465C152.388 76.7415 151.938 76.2826 151.027 76.2695C150.597 76.2695 150.223 76.377 149.904 76.5918C149.591 76.8066 149.399 77.0964 149.328 77.4609C149.23 77.9818 149.624 78.3496 150.509 78.5645L150.9 78.6523C151.798 78.8672 152.485 79.1146 152.961 79.3945C153.436 79.668 153.8 80.0098 154.054 80.4199C154.315 80.8301 154.435 81.3216 154.416 81.8945C154.396 82.5651 154.178 83.151 153.761 83.6523C153.351 84.1536 152.785 84.541 152.062 84.8145C151.346 85.0879 150.591 85.2148 149.796 85.1953C148.625 85.1823 147.648 84.847 146.867 84.1895C146.086 83.5254 145.688 82.6693 145.675 81.6211L148.273 81.6406C148.299 82.6497 148.839 83.1608 149.894 83.1738C150.402 83.1738 150.819 83.0697 151.144 82.8613C151.476 82.653 151.675 82.373 151.74 82.0215ZM169.822 71.8359L169.363 74.4336H171.121L170.76 76.5039H169.002L168.104 81.7969C168.064 82.1289 168.09 82.3828 168.182 82.5586C168.273 82.7344 168.494 82.8288 168.846 82.8418C168.95 82.8483 169.23 82.832 169.686 82.793L169.49 84.9512C169.002 85.1139 168.475 85.1888 167.908 85.1758C167.003 85.1628 166.329 84.8796 165.887 84.3262C165.444 83.7728 165.262 83.0241 165.34 82.0801L166.248 76.5039H164.754L165.115 74.4336H166.609L167.059 71.8359H169.822ZM178.448 74.2383C179.379 74.2513 180.18 74.4922 180.851 74.9609C181.528 75.4232 182.023 76.0645 182.335 76.8848C182.654 77.6986 182.768 78.6035 182.677 79.5996C182.527 81.2793 181.941 82.64 180.919 83.6816C179.904 84.7168 178.647 85.2214 177.15 85.1953C176.232 85.1823 175.437 84.9479 174.767 84.4922C174.096 84.0299 173.601 83.3919 173.282 82.5781C172.963 81.7643 172.849 80.8659 172.941 79.8828C173.11 78.138 173.702 76.7513 174.718 75.7227C175.734 74.694 176.977 74.1992 178.448 74.2383ZM175.665 80.8887C175.678 81.5137 175.825 82.0085 176.105 82.373C176.385 82.7311 176.779 82.9167 177.286 82.9297C178.133 82.9557 178.797 82.5684 179.279 81.7676C179.76 80.9603 179.985 79.9023 179.952 78.5938C179.926 77.9688 179.773 77.4707 179.493 77.0996C179.22 76.722 178.826 76.5267 178.312 76.5137C177.491 76.4876 176.834 76.875 176.339 77.6758C175.851 78.4701 175.626 79.541 175.665 80.8887ZM196.375 74.4238L196.14 75.6738C196.987 74.6908 198.012 74.2122 199.216 74.2383C200.212 74.2578 200.948 74.6224 201.423 75.332C201.899 76.0417 202.071 77.0247 201.941 78.2812L200.828 85H198.074L199.207 78.252C199.239 77.998 199.246 77.7669 199.226 77.5586C199.142 76.8945 198.725 76.5527 197.976 76.5332C197.254 76.5072 196.606 76.8424 196.033 77.5391L194.714 85H191.961L193.796 74.4336L196.375 74.4238ZM210.909 85C210.824 84.7331 210.789 84.4141 210.802 84.043C210.007 84.8372 209.109 85.2214 208.106 85.1953C207.182 85.1823 206.414 84.8828 205.802 84.2969C205.196 83.7044 204.913 82.9753 204.952 82.1094C204.998 80.957 205.479 80.0749 206.397 79.4629C207.322 78.8444 208.559 78.5352 210.108 78.5352L211.397 78.5547L211.534 77.9199C211.573 77.7051 211.583 77.5 211.563 77.3047C211.531 76.9987 211.414 76.7611 211.212 76.5918C211.016 76.416 210.756 76.3249 210.43 76.3184C210.001 76.3053 209.636 76.4128 209.337 76.6406C209.037 76.862 208.845 77.1842 208.761 77.6074L205.997 77.6172C206.042 76.6081 206.505 75.791 207.384 75.166C208.269 74.5345 209.36 74.2253 210.655 74.2383C211.853 74.2643 212.79 74.6224 213.468 75.3125C214.145 75.9961 214.428 76.8783 214.317 77.959L213.507 83.0176L213.458 83.6426C213.445 84.1048 213.5 84.4954 213.624 84.8145L213.614 85H210.909ZM208.79 83.0566C209.584 83.0827 210.277 82.7376 210.87 82.0215L211.212 80.1953L210.255 80.1855C209.239 80.2116 208.507 80.5208 208.057 81.1133C207.895 81.3281 207.794 81.5918 207.755 81.9043C207.703 82.2559 207.774 82.5358 207.97 82.7441C208.171 82.946 208.445 83.0501 208.79 83.0566ZM221.391 81.5137L224.398 74.4336H227.367L222.26 85H219.623L217.816 74.4336H220.609L221.391 81.5137ZM231.56 85H228.786L230.622 74.4336H233.396L231.56 85ZM230.945 71.748C230.932 71.3118 231.075 70.9505 231.374 70.6641C231.674 70.3776 232.035 70.2344 232.458 70.2344C232.875 70.2214 233.236 70.3483 233.542 70.6152C233.848 70.8822 234.008 71.2272 234.021 71.6504C234.034 72.054 233.897 72.4056 233.611 72.7051C233.331 73.0046 232.963 73.1608 232.507 73.1738C232.097 73.1868 231.736 73.0632 231.423 72.8027C231.117 72.5423 230.958 72.1908 230.945 71.748ZM236.231 79.707C236.426 78.0729 236.957 76.748 237.823 75.7324C238.695 74.7103 239.792 74.209 241.114 74.2285C242.24 74.2546 243.08 74.6615 243.633 75.4492L243.995 74.4238L246.524 74.4336L244.795 84.6387C244.607 86.0449 244.008 87.1582 242.998 87.9785C241.989 88.7988 240.739 89.196 239.248 89.1699C238.519 89.1569 237.823 88.9974 237.159 88.6914C236.495 88.3919 235.948 87.9785 235.518 87.4512L236.885 85.7715C237.497 86.5462 238.265 86.9466 239.19 86.9727C239.906 86.9987 240.518 86.8099 241.026 86.4062C241.534 86.0091 241.879 85.446 242.061 84.7168L242.217 84.082C241.449 84.8503 240.586 85.2214 239.629 85.1953C238.601 85.1823 237.784 84.8014 237.178 84.0527C236.573 83.2975 236.241 82.3177 236.182 81.1133C236.163 80.7161 236.179 80.2474 236.231 79.707ZM238.936 80.8594C238.936 81.4714 239.063 81.9629 239.317 82.334C239.577 82.6986 239.952 82.8906 240.44 82.9102C241.189 82.9362 241.853 82.6172 242.432 81.9531L243.252 77.4805C242.972 76.8685 242.455 76.5495 241.7 76.5234C240.996 76.5039 240.401 76.7871 239.913 77.373C239.424 77.959 239.118 78.737 238.995 79.707C238.949 80.1823 238.929 80.5664 238.936 80.8594ZM254.789 85C254.704 84.7331 254.668 84.4141 254.681 84.043C253.887 84.8372 252.989 85.2214 251.986 85.1953C251.061 85.1823 250.293 84.8828 249.681 84.2969C249.076 83.7044 248.793 82.9753 248.832 82.1094C248.877 80.957 249.359 80.0749 250.277 79.4629C251.201 78.8444 252.438 78.5352 253.988 78.5352L255.277 78.5547L255.414 77.9199C255.453 77.7051 255.462 77.5 255.443 77.3047C255.41 76.9987 255.293 76.7611 255.091 76.5918C254.896 76.416 254.636 76.3249 254.31 76.3184C253.88 76.3053 253.516 76.4128 253.216 76.6406C252.917 76.862 252.725 77.1842 252.64 77.6074L249.877 77.6172C249.922 76.6081 250.384 75.791 251.263 75.166C252.149 74.5345 253.239 74.2253 254.535 74.2383C255.733 74.2643 256.67 74.6224 257.347 75.3125C258.024 75.9961 258.308 76.8783 258.197 77.959L257.386 83.0176L257.337 83.6426C257.324 84.1048 257.38 84.4954 257.504 84.8145L257.494 85H254.789ZM252.67 83.0566C253.464 83.0827 254.157 82.7376 254.75 82.0215L255.091 80.1953L254.134 80.1855C253.119 80.2116 252.386 80.5208 251.937 81.1133C251.774 81.3281 251.673 81.5918 251.634 81.9043C251.582 82.2559 251.654 82.5358 251.849 82.7441C252.051 82.946 252.324 83.0501 252.67 83.0566ZM266.569 71.8359L266.11 74.4336H267.868L267.507 76.5039H265.749L264.85 81.7969C264.811 82.1289 264.837 82.3828 264.929 82.5586C265.02 82.7344 265.241 82.8288 265.593 82.8418C265.697 82.8483 265.977 82.832 266.432 82.793L266.237 84.9512C265.749 85.1139 265.221 85.1888 264.655 85.1758C263.75 85.1628 263.076 84.8796 262.634 84.3262C262.191 83.7728 262.009 83.0241 262.087 82.0801L262.995 76.5039H261.501L261.862 74.4336H263.356L263.805 71.8359H266.569ZM274.463 85.1953C273.538 85.1888 272.718 84.9642 272.002 84.5215C271.292 84.0723 270.762 83.4603 270.41 82.6855C270.059 81.9043 269.922 81.0449 270 80.1074L270.029 79.7168C270.127 78.6882 270.426 77.7441 270.928 76.8848C271.429 76.0254 272.074 75.3646 272.861 74.9023C273.649 74.4336 274.521 74.2122 275.479 74.2383C276.839 74.2643 277.868 74.7656 278.564 75.7422C279.268 76.7122 279.535 77.9427 279.365 79.4336L279.209 80.6348H272.734C272.708 81.3184 272.874 81.8652 273.232 82.2754C273.59 82.6855 274.079 82.8971 274.697 82.9102C275.7 82.9362 276.579 82.5488 277.334 81.748L278.594 83.3105C278.197 83.9095 277.624 84.3783 276.875 84.7168C276.126 85.0488 275.322 85.2083 274.463 85.1953ZM275.342 76.5137C274.834 76.5007 274.382 76.6602 273.984 76.9922C273.594 77.3242 273.242 77.9004 272.93 78.7207H276.719L276.777 78.4668C276.816 78.2064 276.82 77.959 276.787 77.7246C276.722 77.347 276.562 77.054 276.309 76.8457C276.055 76.6309 275.732 76.5202 275.342 76.5137Z" fill="white"/>
<rect x="151" width="58" height="58" rx="6" fill="white"/>
<path d="M192.914 30.8839C193.402 30.3957 193.402 29.6043 192.914 29.1161L184.959 21.1612C184.471 20.673 183.679 20.673 183.191 21.1612C182.703 21.6493 182.703 22.4408 183.191 22.9289L190.262 30L183.191 37.0711C182.703 37.5592 182.703 38.3507 183.191 38.8388C183.679 39.327 184.471 39.327 184.959 38.8388L192.914 30.8839ZM167.97 31.25H192.03V28.75H167.97V31.25Z" fill="#312F4D"/>
<rect x="70" width="58" height="58" rx="6" fill="white"/>
<path d="M86.0861 29.1161C85.598 29.6043 85.598 30.3957 86.0861 30.8839L94.0411 38.8388C94.5293 39.327 95.3207 39.327 95.8089 38.8388C96.297 38.3507 96.297 37.5592 95.8089 37.0711L88.7378 30L95.8089 22.9289C96.297 22.4408 96.297 21.6493 95.8089 21.1612C95.3207 20.673 94.5293 20.673 94.0411 21.1612L86.0861 29.1161ZM111.03 28.75L86.97 28.75V31.25L111.03 31.25V28.75Z" fill="#312F4D"/>
</svg>
