<svg width="274" height="76" viewBox="0 0 274 76" fill="none" xmlns="http://www.w3.org/2000/svg">
<path d="M18.1289 26.2871H8.1123L6.20801 32H0.133301L10.4546 4.27344H15.7485L26.127 32H20.0522L18.1289 26.2871ZM9.65479 21.6597H16.5864L13.1016 11.2812L9.65479 21.6597ZM45.4487 32V4.27344H55.1606C58.5249 4.27344 61.0766 4.9209 62.8159 6.21582C64.5552 7.49805 65.4248 9.3833 65.4248 11.8716C65.4248 13.23 65.0757 14.4297 64.3774 15.4707C63.6792 16.499 62.708 17.2544 61.4638 17.7368C62.8857 18.0923 64.0029 18.8096 64.8154 19.8887C65.6406 20.9678 66.0532 22.2881 66.0532 23.8496C66.0532 26.5156 65.2026 28.5342 63.5014 29.9053C61.8003 31.2764 59.3755 31.9746 56.227 32H45.4487ZM51.1616 19.9268V27.4106H56.0556C57.4013 27.4106 58.4487 27.0933 59.1977 26.4585C59.9595 25.811 60.3403 24.9224 60.3403 23.7925C60.3403 21.2534 59.0263 19.9648 56.3984 19.9268H51.1616ZM51.1616 15.8896H55.3891C58.271 15.8389 59.7119 14.6899 59.7119 12.4429C59.7119 11.186 59.3437 10.2847 58.6074 9.73877C57.8838 9.18018 56.7348 8.90088 55.1606 8.90088H51.1616V15.8896ZM79.3132 32H73.7907V2.75H79.3132V32ZM99.3144 32C99.0605 31.5049 98.8764 30.8892 98.7622 30.1528C97.4292 31.6382 95.6963 32.3809 93.5634 32.3809C91.5449 32.3809 89.8691 31.7969 88.5361 30.6289C87.2158 29.4609 86.5556 27.9883 86.5556 26.2109C86.5556 24.0273 87.3618 22.3516 88.9741 21.1836C90.5991 20.0156 92.9414 19.4253 96.0009 19.4126H98.5337V18.2319C98.5337 17.2798 98.2861 16.5181 97.791 15.9468C97.3086 15.3755 96.5405 15.0898 95.4868 15.0898C94.56 15.0898 93.83 15.312 93.2968 15.7563C92.7763 16.2007 92.5161 16.8101 92.5161 17.5845H87.0127C87.0127 16.3911 87.3808 15.2866 88.1171 14.271C88.8535 13.2554 89.8945 12.4619 91.2402 11.8906C92.5859 11.3066 94.0966 11.0146 95.7724 11.0146C98.3115 11.0146 100.324 11.6558 101.809 12.938C103.307 14.2075 104.056 15.9976 104.056 18.3081V27.2393C104.069 29.1943 104.342 30.6733 104.875 31.6763V32H99.3144ZM94.7631 28.1724C95.5756 28.1724 96.3247 27.9946 97.0102 27.6392C97.6958 27.271 98.2036 26.7822 98.5337 26.1729V22.6309H96.477C93.7221 22.6309 92.2558 23.583 92.0781 25.4873L92.059 25.811C92.059 26.4966 92.3003 27.0615 92.7827 27.5059C93.2651 27.9502 93.9253 28.1724 94.7631 28.1724ZM122.953 26.3062C122.953 25.6333 122.616 25.1064 121.944 24.7256C121.283 24.332 120.217 23.9829 118.744 23.6782C113.844 22.6499 111.394 20.5679 111.394 17.4321C111.394 15.604 112.149 14.0806 113.66 12.8618C115.183 11.6304 117.17 11.0146 119.62 11.0146C122.236 11.0146 124.324 11.6304 125.885 12.8618C127.46 14.0933 128.247 15.6929 128.247 17.6606H122.743C122.743 16.8735 122.489 16.2261 121.982 15.7183C121.474 15.1978 120.68 14.9375 119.601 14.9375C118.675 14.9375 117.957 15.147 117.449 15.5659C116.942 15.9849 116.688 16.5181 116.688 17.1655C116.688 17.7749 116.973 18.27 117.545 18.6509C118.129 19.019 119.106 19.3428 120.477 19.6221C121.848 19.8887 123.004 20.1934 123.943 20.5361C126.85 21.6025 128.304 23.4497 128.304 26.0776C128.304 27.9565 127.498 29.48 125.885 30.6479C124.273 31.8032 122.191 32.3809 119.639 32.3809C117.913 32.3809 116.377 32.0762 115.031 31.4668C113.698 30.8447 112.651 30.0005 111.889 28.9341C111.127 27.855 110.746 26.6934 110.746 25.4492H115.964C116.015 26.4268 116.377 27.1758 117.05 27.6963C117.722 28.2168 118.624 28.4771 119.754 28.4771C120.807 28.4771 121.601 28.2803 122.134 27.8867C122.68 27.4805 122.953 26.9536 122.953 26.3062ZM141.964 6.33008V11.3955H145.487V15.4326H141.964V25.7158C141.964 26.4775 142.11 27.0234 142.402 27.3535C142.694 27.6836 143.252 27.8486 144.078 27.8486C144.687 27.8486 145.227 27.8042 145.696 27.7153V31.8857C144.617 32.2158 143.506 32.3809 142.364 32.3809C138.504 32.3809 136.537 30.4321 136.46 26.5347V15.4326H133.452V11.3955H136.46V6.33008H141.964ZM166.789 32V15.4326H163.723V11.3955H166.789V9.64355C166.789 7.33301 167.449 5.54297 168.769 4.27344C170.102 2.99121 171.962 2.3501 174.349 2.3501C175.111 2.3501 176.044 2.47705 177.148 2.73096L177.091 6.99658C176.634 6.88232 176.076 6.8252 175.415 6.8252C173.346 6.8252 172.311 7.79639 172.311 9.73877V11.3955H176.406V15.4326H172.311V32H166.789ZM194.35 16.5562C193.601 16.4546 192.941 16.4038 192.37 16.4038C190.288 16.4038 188.923 17.1084 188.276 18.5176V32H182.772V11.3955H187.971L188.123 13.8521C189.228 11.9604 190.757 11.0146 192.713 11.0146C193.322 11.0146 193.893 11.0972 194.426 11.2622L194.35 16.5562ZM198.984 21.5073C198.984 19.4634 199.377 17.6416 200.164 16.042C200.952 14.4424 202.081 13.2046 203.554 12.3286C205.039 11.4526 206.76 11.0146 208.715 11.0146C211.495 11.0146 213.761 11.8652 215.513 13.5664C217.278 15.2676 218.262 17.5781 218.465 20.498L218.503 21.9072C218.503 25.0684 217.621 27.6074 215.856 29.5244C214.091 31.4287 211.724 32.3809 208.753 32.3809C205.782 32.3809 203.408 31.4287 201.631 29.5244C199.866 27.6201 198.984 25.0303 198.984 21.7549V21.5073ZM204.487 21.9072C204.487 23.8623 204.855 25.3604 205.592 26.4014C206.328 27.4297 207.382 27.9438 208.753 27.9438C210.086 27.9438 211.127 27.436 211.876 26.4204C212.625 25.3921 212.999 23.7544 212.999 21.5073C212.999 19.5903 212.625 18.105 211.876 17.0513C211.127 15.9976 210.073 15.4707 208.715 15.4707C207.369 15.4707 206.328 15.9976 205.592 17.0513C204.855 18.0923 204.487 19.7109 204.487 21.9072ZM230.563 11.3955L230.735 13.6997C232.194 11.9097 234.169 11.0146 236.657 11.0146C239.31 11.0146 241.132 12.062 242.122 14.1567C243.569 12.062 245.632 11.0146 248.311 11.0146C250.546 11.0146 252.209 11.6685 253.3 12.9761C254.392 14.271 254.938 16.2261 254.938 18.8413V32H249.416V18.8604C249.416 17.6924 249.187 16.8418 248.73 16.3086C248.273 15.7627 247.467 15.4897 246.312 15.4897C244.661 15.4897 243.519 16.2769 242.884 17.8511L242.903 32H237.4V18.8794C237.4 17.686 237.165 16.8228 236.695 16.2896C236.225 15.7563 235.425 15.4897 234.296 15.4897C232.734 15.4897 231.604 16.1372 230.906 17.4321V32H225.402V11.3955H230.563ZM8.70264 44.3301V49.3955H12.2256V53.4326H8.70264V63.7158C8.70264 64.4775 8.84863 65.0234 9.14062 65.3535C9.43262 65.6836 9.99121 65.8486 10.8164 65.8486C11.4258 65.8486 11.9653 65.8042 12.4351 65.7153V69.8857C11.356 70.2158 10.2451 70.3809 9.10254 70.3809C5.24316 70.3809 3.27539 68.4321 3.19922 64.5347V53.4326H0.19043V49.3955H3.19922V44.3301H8.70264ZM24.1716 51.6426C25.6316 49.8906 27.4661 49.0146 29.675 49.0146C34.1438 49.0146 36.4099 51.6108 36.4734 56.8032V70H30.97V56.9556C30.97 55.7749 30.7161 54.9053 30.2082 54.3467C29.7004 53.7754 28.8562 53.4897 27.6755 53.4897C26.0632 53.4897 24.8953 54.1118 24.1716 55.356V70H18.6682V40.75H24.1716V51.6426ZM53.6181 70.3809C50.5967 70.3809 48.1338 69.4541 46.2295 67.6006C44.3379 65.7471 43.3921 63.2778 43.3921 60.1929V59.6597C43.3921 57.5903 43.792 55.7432 44.5918 54.1182C45.3916 52.4805 46.5215 51.2236 47.9814 50.3477C49.4541 49.459 51.1299 49.0146 53.0088 49.0146C55.8271 49.0146 58.0425 49.9033 59.6548 51.6807C61.2798 53.458 62.0923 55.978 62.0923 59.2407V61.4878H48.9717C49.1494 62.8335 49.6826 63.9126 50.5713 64.7251C51.4726 65.5376 52.6089 65.9438 53.98 65.9438C56.1001 65.9438 57.7568 65.1758 58.9502 63.6396L61.6543 66.6675C60.8291 67.8354 59.7119 68.7495 58.3027 69.4097C56.8935 70.0571 55.332 70.3809 53.6181 70.3809ZM52.9897 53.4707C51.8979 53.4707 51.0093 53.8389 50.3237 54.5752C49.6509 55.3115 49.2192 56.3652 49.0288 57.7363H56.6841V57.2983C56.6587 56.0796 56.3286 55.1401 55.6938 54.48C55.0591 53.8071 54.1577 53.4707 52.9897 53.4707ZM88.041 60.231V70H82.3281V42.2734H93.1445C95.2265 42.2734 97.0546 42.6543 98.6289 43.416C100.216 44.1777 101.435 45.2632 102.285 46.6724C103.136 48.0688 103.561 49.6621 103.561 51.4521C103.561 54.1689 102.628 56.3145 100.762 57.8887C98.9082 59.4502 96.3374 60.231 93.0493 60.231H88.041ZM88.041 55.6035H93.1445C94.6552 55.6035 95.8042 55.248 96.5913 54.5371C97.3911 53.8262 97.791 52.8105 97.791 51.4902C97.791 50.1318 97.3911 49.0337 96.5913 48.1958C95.7915 47.3579 94.687 46.9263 93.2778 46.9009H88.041V55.6035ZM122.363 70C122.109 69.5049 121.925 68.8892 121.81 68.1528C120.477 69.6382 118.744 70.3809 116.612 70.3809C114.593 70.3809 112.917 69.7969 111.584 68.6289C110.264 67.4609 109.604 65.9883 109.604 64.2109C109.604 62.0273 110.41 60.3516 112.022 59.1836C113.647 58.0156 115.989 57.4253 119.049 57.4126H121.582V56.2319C121.582 55.2798 121.334 54.5181 120.839 53.9468C120.357 53.3755 119.589 53.0898 118.535 53.0898C117.608 53.0898 116.878 53.312 116.345 53.7563C115.824 54.2007 115.564 54.8101 115.564 55.5845H110.061C110.061 54.3911 110.429 53.2866 111.165 52.271C111.902 51.2554 112.943 50.4619 114.288 49.8906C115.634 49.3066 117.145 49.0146 118.821 49.0146C121.36 49.0146 123.372 49.6558 124.857 50.938C126.355 52.2075 127.104 53.9976 127.104 56.3081V65.2393C127.117 67.1943 127.39 68.6733 127.923 69.6763V70H122.363ZM117.811 66.1724C118.624 66.1724 119.373 65.9946 120.058 65.6392C120.744 65.271 121.252 64.7822 121.582 64.1729V60.6309H119.525C116.77 60.6309 115.304 61.583 115.126 63.4873L115.107 63.811C115.107 64.4966 115.348 65.0615 115.831 65.5059C116.313 65.9502 116.973 66.1724 117.811 66.1724ZM146.001 64.3062C146.001 63.6333 145.664 63.1064 144.992 62.7256C144.331 62.332 143.265 61.9829 141.792 61.6782C136.892 60.6499 134.442 58.5679 134.442 55.4321C134.442 53.604 135.197 52.0806 136.708 50.8618C138.231 49.6304 140.218 49.0146 142.668 49.0146C145.284 49.0146 147.372 49.6304 148.934 50.8618C150.508 52.0933 151.295 53.6929 151.295 55.6606H145.791C145.791 54.8735 145.538 54.2261 145.03 53.7183C144.522 53.1978 143.728 52.9375 142.649 52.9375C141.723 52.9375 141.005 53.147 140.497 53.5659C139.99 53.9849 139.736 54.5181 139.736 55.1655C139.736 55.7749 140.021 56.27 140.593 56.6509C141.177 57.019 142.154 57.3428 143.525 57.6221C144.896 57.8887 146.052 58.1934 146.991 58.5361C149.898 59.6025 151.352 61.4497 151.352 64.0776C151.352 65.9565 150.546 67.48 148.934 68.6479C147.321 69.8032 145.239 70.3809 142.687 70.3809C140.961 70.3809 139.425 70.0762 138.079 69.4668C136.746 68.8447 135.699 68.0005 134.937 66.9341C134.175 65.855 133.794 64.6934 133.794 63.4492H139.012C139.063 64.4268 139.425 65.1758 140.098 65.6963C140.77 66.2168 141.672 66.4771 142.802 66.4771C143.855 66.4771 144.649 66.2803 145.182 65.8867C145.728 65.4805 146.001 64.9536 146.001 64.3062ZM165.012 44.3301V49.3955H168.535V53.4326H165.012V63.7158C165.012 64.4775 165.158 65.0234 165.45 65.3535C165.742 65.6836 166.3 65.8486 167.126 65.8486C167.735 65.8486 168.275 65.8042 168.744 65.7153V69.8857C167.665 70.2158 166.554 70.3809 165.412 70.3809C161.552 70.3809 159.585 68.4321 159.508 64.5347V53.4326H156.5V49.3955H159.508V44.3301H165.012Z" fill="#E5277B"/>
<path d="M21.1289 26.2871H11.1123L9.20801 32H3.1333L13.4546 4.27344H18.7485L29.127 32H23.0522L21.1289 26.2871ZM12.6548 21.6597H19.5864L16.1016 11.2812L12.6548 21.6597ZM48.4487 32V4.27344H58.1606C61.5249 4.27344 64.0766 4.9209 65.8159 6.21582C67.5552 7.49805 68.4248 9.3833 68.4248 11.8716C68.4248 13.23 68.0757 14.4297 67.3774 15.4707C66.6792 16.499 65.708 17.2544 64.4638 17.7368C65.8857 18.0923 67.0029 18.8096 67.8154 19.8887C68.6406 20.9678 69.0532 22.2881 69.0532 23.8496C69.0532 26.5156 68.2026 28.5342 66.5014 29.9053C64.8003 31.2764 62.3755 31.9746 59.227 32H48.4487ZM54.1616 19.9268V27.4106H59.0556C60.4013 27.4106 61.4487 27.0933 62.1977 26.4585C62.9595 25.811 63.3403 24.9224 63.3403 23.7925C63.3403 21.2534 62.0263 19.9648 59.3984 19.9268H54.1616ZM54.1616 15.8896H58.3891C61.271 15.8389 62.7119 14.6899 62.7119 12.4429C62.7119 11.186 62.3437 10.2847 61.6074 9.73877C60.8838 9.18018 59.7348 8.90088 58.1606 8.90088H54.1616V15.8896ZM82.3132 32H76.7907V2.75H82.3132V32ZM102.314 32C102.061 31.5049 101.876 30.8892 101.762 30.1528C100.429 31.6382 98.6963 32.3809 96.5634 32.3809C94.5449 32.3809 92.8691 31.7969 91.5361 30.6289C90.2158 29.4609 89.5556 27.9883 89.5556 26.2109C89.5556 24.0273 90.3618 22.3516 91.9741 21.1836C93.5991 20.0156 95.9414 19.4253 99.0009 19.4126H101.534V18.2319C101.534 17.2798 101.286 16.5181 100.791 15.9468C100.309 15.3755 99.5405 15.0898 98.4868 15.0898C97.56 15.0898 96.83 15.312 96.2968 15.7563C95.7763 16.2007 95.5161 16.8101 95.5161 17.5845H90.0127C90.0127 16.3911 90.3808 15.2866 91.1171 14.271C91.8535 13.2554 92.8945 12.4619 94.2402 11.8906C95.5859 11.3066 97.0966 11.0146 98.7724 11.0146C101.311 11.0146 103.324 11.6558 104.809 12.938C106.307 14.2075 107.056 15.9976 107.056 18.3081V27.2393C107.069 29.1943 107.342 30.6733 107.875 31.6763V32H102.314ZM97.7631 28.1724C98.5756 28.1724 99.3247 27.9946 100.01 27.6392C100.696 27.271 101.204 26.7822 101.534 26.1729V22.6309H99.477C96.7221 22.6309 95.2558 23.583 95.0781 25.4873L95.059 25.811C95.059 26.4966 95.3003 27.0615 95.7827 27.5059C96.2651 27.9502 96.9253 28.1724 97.7631 28.1724ZM125.953 26.3062C125.953 25.6333 125.616 25.1064 124.944 24.7256C124.283 24.332 123.217 23.9829 121.744 23.6782C116.844 22.6499 114.394 20.5679 114.394 17.4321C114.394 15.604 115.149 14.0806 116.66 12.8618C118.183 11.6304 120.17 11.0146 122.62 11.0146C125.236 11.0146 127.324 11.6304 128.885 12.8618C130.46 14.0933 131.247 15.6929 131.247 17.6606H125.743C125.743 16.8735 125.489 16.2261 124.982 15.7183C124.474 15.1978 123.68 14.9375 122.601 14.9375C121.675 14.9375 120.957 15.147 120.449 15.5659C119.942 15.9849 119.688 16.5181 119.688 17.1655C119.688 17.7749 119.973 18.27 120.545 18.6509C121.129 19.019 122.106 19.3428 123.477 19.6221C124.848 19.8887 126.004 20.1934 126.943 20.5361C129.85 21.6025 131.304 23.4497 131.304 26.0776C131.304 27.9565 130.498 29.48 128.885 30.6479C127.273 31.8032 125.191 32.3809 122.639 32.3809C120.913 32.3809 119.377 32.0762 118.031 31.4668C116.698 30.8447 115.651 30.0005 114.889 28.9341C114.127 27.855 113.746 26.6934 113.746 25.4492H118.964C119.015 26.4268 119.377 27.1758 120.05 27.6963C120.722 28.2168 121.624 28.4771 122.754 28.4771C123.807 28.4771 124.601 28.2803 125.134 27.8867C125.68 27.4805 125.953 26.9536 125.953 26.3062ZM144.964 6.33008V11.3955H148.487V15.4326H144.964V25.7158C144.964 26.4775 145.11 27.0234 145.402 27.3535C145.694 27.6836 146.252 27.8486 147.078 27.8486C147.687 27.8486 148.227 27.8042 148.696 27.7153V31.8857C147.617 32.2158 146.506 32.3809 145.364 32.3809C141.504 32.3809 139.537 30.4321 139.46 26.5347V15.4326H136.452V11.3955H139.46V6.33008H144.964ZM169.789 32V15.4326H166.723V11.3955H169.789V9.64355C169.789 7.33301 170.449 5.54297 171.769 4.27344C173.102 2.99121 174.962 2.3501 177.349 2.3501C178.111 2.3501 179.044 2.47705 180.148 2.73096L180.091 6.99658C179.634 6.88232 179.076 6.8252 178.415 6.8252C176.346 6.8252 175.311 7.79639 175.311 9.73877V11.3955H179.406V15.4326H175.311V32H169.789ZM197.35 16.5562C196.601 16.4546 195.941 16.4038 195.37 16.4038C193.288 16.4038 191.923 17.1084 191.276 18.5176V32H185.772V11.3955H190.971L191.123 13.8521C192.228 11.9604 193.757 11.0146 195.713 11.0146C196.322 11.0146 196.893 11.0972 197.426 11.2622L197.35 16.5562ZM201.984 21.5073C201.984 19.4634 202.377 17.6416 203.164 16.042C203.952 14.4424 205.081 13.2046 206.554 12.3286C208.039 11.4526 209.76 11.0146 211.715 11.0146C214.495 11.0146 216.761 11.8652 218.513 13.5664C220.278 15.2676 221.262 17.5781 221.465 20.498L221.503 21.9072C221.503 25.0684 220.621 27.6074 218.856 29.5244C217.091 31.4287 214.724 32.3809 211.753 32.3809C208.782 32.3809 206.408 31.4287 204.631 29.5244C202.866 27.6201 201.984 25.0303 201.984 21.7549V21.5073ZM207.487 21.9072C207.487 23.8623 207.855 25.3604 208.592 26.4014C209.328 27.4297 210.382 27.9438 211.753 27.9438C213.086 27.9438 214.127 27.436 214.876 26.4204C215.625 25.3921 215.999 23.7544 215.999 21.5073C215.999 19.5903 215.625 18.105 214.876 17.0513C214.127 15.9976 213.073 15.4707 211.715 15.4707C210.369 15.4707 209.328 15.9976 208.592 17.0513C207.855 18.0923 207.487 19.7109 207.487 21.9072ZM233.563 11.3955L233.735 13.6997C235.194 11.9097 237.169 11.0146 239.657 11.0146C242.31 11.0146 244.132 12.062 245.122 14.1567C246.569 12.062 248.632 11.0146 251.311 11.0146C253.546 11.0146 255.209 11.6685 256.3 12.9761C257.392 14.271 257.938 16.2261 257.938 18.8413V32H252.416V18.8604C252.416 17.6924 252.187 16.8418 251.73 16.3086C251.273 15.7627 250.467 15.4897 249.312 15.4897C247.661 15.4897 246.519 16.2769 245.884 17.8511L245.903 32H240.4V18.8794C240.4 17.686 240.165 16.8228 239.695 16.2896C239.225 15.7563 238.425 15.4897 237.296 15.4897C235.734 15.4897 234.604 16.1372 233.906 17.4321V32H228.402V11.3955H233.563ZM11.7026 44.3301V49.3955H15.2256V53.4326H11.7026V63.7158C11.7026 64.4775 11.8486 65.0234 12.1406 65.3535C12.4326 65.6836 12.9912 65.8486 13.8164 65.8486C14.4258 65.8486 14.9653 65.8042 15.4351 65.7153V69.8857C14.356 70.2158 13.2451 70.3809 12.1025 70.3809C8.24316 70.3809 6.27539 68.4321 6.19922 64.5347V53.4326H3.19043V49.3955H6.19922V44.3301H11.7026ZM27.1716 51.6426C28.6316 49.8906 30.4661 49.0146 32.675 49.0146C37.1438 49.0146 39.4099 51.6108 39.4734 56.8032V70H33.97V56.9556C33.97 55.7749 33.7161 54.9053 33.2082 54.3467C32.7004 53.7754 31.8562 53.4897 30.6755 53.4897C29.0632 53.4897 27.8953 54.1118 27.1716 55.356V70H21.6682V40.75H27.1716V51.6426ZM56.6181 70.3809C53.5967 70.3809 51.1338 69.4541 49.2295 67.6006C47.3379 65.7471 46.3921 63.2778 46.3921 60.1929V59.6597C46.3921 57.5903 46.792 55.7432 47.5918 54.1182C48.3916 52.4805 49.5215 51.2236 50.9814 50.3477C52.4541 49.459 54.1299 49.0146 56.0088 49.0146C58.8271 49.0146 61.0425 49.9033 62.6548 51.6807C64.2798 53.458 65.0923 55.978 65.0923 59.2407V61.4878H51.9717C52.1494 62.8335 52.6826 63.9126 53.5713 64.7251C54.4726 65.5376 55.6089 65.9438 56.98 65.9438C59.1001 65.9438 60.7568 65.1758 61.9502 63.6396L64.6543 66.6675C63.8291 67.8354 62.7119 68.7495 61.3027 69.4097C59.8935 70.0571 58.332 70.3809 56.6181 70.3809ZM55.9897 53.4707C54.8979 53.4707 54.0093 53.8389 53.3237 54.5752C52.6509 55.3115 52.2192 56.3652 52.0288 57.7363H59.6841V57.2983C59.6587 56.0796 59.3286 55.1401 58.6938 54.48C58.0591 53.8071 57.1577 53.4707 55.9897 53.4707ZM91.041 60.231V70H85.3281V42.2734H96.1445C98.2265 42.2734 100.055 42.6543 101.629 43.416C103.216 44.1777 104.435 45.2632 105.285 46.6724C106.136 48.0688 106.561 49.6621 106.561 51.4521C106.561 54.1689 105.628 56.3145 103.762 57.8887C101.908 59.4502 99.3374 60.231 96.0493 60.231H91.041ZM91.041 55.6035H96.1445C97.6552 55.6035 98.8042 55.248 99.5913 54.5371C100.391 53.8262 100.791 52.8105 100.791 51.4902C100.791 50.1318 100.391 49.0337 99.5913 48.1958C98.7915 47.3579 97.687 46.9263 96.2778 46.9009H91.041V55.6035ZM125.363 70C125.109 69.5049 124.925 68.8892 124.81 68.1528C123.477 69.6382 121.744 70.3809 119.612 70.3809C117.593 70.3809 115.917 69.7969 114.584 68.6289C113.264 67.4609 112.604 65.9883 112.604 64.2109C112.604 62.0273 113.41 60.3516 115.022 59.1836C116.647 58.0156 118.989 57.4253 122.049 57.4126H124.582V56.2319C124.582 55.2798 124.334 54.5181 123.839 53.9468C123.357 53.3755 122.589 53.0898 121.535 53.0898C120.608 53.0898 119.878 53.312 119.345 53.7563C118.824 54.2007 118.564 54.8101 118.564 55.5845H113.061C113.061 54.3911 113.429 53.2866 114.165 52.271C114.902 51.2554 115.943 50.4619 117.288 49.8906C118.634 49.3066 120.145 49.0146 121.821 49.0146C124.36 49.0146 126.372 49.6558 127.857 50.938C129.355 52.2075 130.104 53.9976 130.104 56.3081V65.2393C130.117 67.1943 130.39 68.6733 130.923 69.6763V70H125.363ZM120.811 66.1724C121.624 66.1724 122.373 65.9946 123.058 65.6392C123.744 65.271 124.252 64.7822 124.582 64.1729V60.6309H122.525C119.77 60.6309 118.304 61.583 118.126 63.4873L118.107 63.811C118.107 64.4966 118.348 65.0615 118.831 65.5059C119.313 65.9502 119.973 66.1724 120.811 66.1724ZM149.001 64.3062C149.001 63.6333 148.664 63.1064 147.992 62.7256C147.331 62.332 146.265 61.9829 144.792 61.6782C139.892 60.6499 137.442 58.5679 137.442 55.4321C137.442 53.604 138.197 52.0806 139.708 50.8618C141.231 49.6304 143.218 49.0146 145.668 49.0146C148.284 49.0146 150.372 49.6304 151.934 50.8618C153.508 52.0933 154.295 53.6929 154.295 55.6606H148.791C148.791 54.8735 148.538 54.2261 148.03 53.7183C147.522 53.1978 146.728 52.9375 145.649 52.9375C144.723 52.9375 144.005 53.147 143.497 53.5659C142.99 53.9849 142.736 54.5181 142.736 55.1655C142.736 55.7749 143.021 56.27 143.593 56.6509C144.177 57.019 145.154 57.3428 146.525 57.6221C147.896 57.8887 149.052 58.1934 149.991 58.5361C152.898 59.6025 154.352 61.4497 154.352 64.0776C154.352 65.9565 153.546 67.48 151.934 68.6479C150.321 69.8032 148.239 70.3809 145.687 70.3809C143.961 70.3809 142.425 70.0762 141.079 69.4668C139.746 68.8447 138.699 68.0005 137.937 66.9341C137.175 65.855 136.794 64.6934 136.794 63.4492H142.012C142.063 64.4268 142.425 65.1758 143.098 65.6963C143.77 66.2168 144.672 66.4771 145.802 66.4771C146.855 66.4771 147.649 66.2803 148.182 65.8867C148.728 65.4805 149.001 64.9536 149.001 64.3062ZM168.012 44.3301V49.3955H171.535V53.4326H168.012V63.7158C168.012 64.4775 168.158 65.0234 168.45 65.3535C168.742 65.6836 169.3 65.8486 170.126 65.8486C170.735 65.8486 171.275 65.8042 171.744 65.7153V69.8857C170.665 70.2158 169.554 70.3809 168.412 70.3809C164.552 70.3809 162.585 68.4321 162.508 64.5347V53.4326H159.5V49.3955H162.508V44.3301H168.012Z" fill="white"/>
</svg>
