<svg width="70" height="47" viewBox="0 0 70 47" fill="none" xmlns="http://www.w3.org/2000/svg">
<path d="M24.6948 7.25648C23.9302 8.7763 23.5 10.4912 23.5 12.3061C23.5 15.782 25.0782 18.8916 27.5612 20.9656C21.8821 22.8224 18 27.0799 18 33.8L17.875 46H51.875L52 33.8C52 27.0665 47.9722 22.8054 42.2021 20.9545C44.6775 18.8805 46.25 15.7758 46.25 12.3061C46.25 10.4912 45.8198 8.7763 45.0552 7.25648M24.6948 7.25648C26.5608 3.54709 30.4186 1 34.875 1C39.3314 1 43.1892 3.54709 45.0552 7.25648M24.6948 7.25648C22.7945 5.8395 20.4334 5 17.875 5C11.5928 5 6.5 10.0619 6.5 16.3061C6.5 19.782 8.07816 22.8916 10.5612 24.9656C4.88206 26.8224 1 31.0799 1 37.8V46H35H69V37.8C69 31.0665 64.9722 26.8054 59.2021 24.9545C61.6775 22.8805 63.25 19.7758 63.25 16.3061C63.25 10.0619 58.1572 5 51.875 5C49.3166 5 46.9555 5.8395 45.0552 7.25648" stroke="#FEEBDB" stroke-width="2"/>
</svg>
