<svg width="30" height="26" viewBox="0 0 30 26" fill="none" xmlns="http://www.w3.org/2000/svg">
<path d="M1 21C3.09763 21 6.33333 21 6.33333 21C18.6667 21 11.6667 5 22 5C22 5 25.5273 5 29 5M29 5L26.3333 9M29 5C29 5 28.1558 3.73367 26.3333 1L29 5Z" stroke="#E5277B" stroke-width="2" stroke-linecap="round" stroke-linejoin="round"/>
<path d="M1 5C3.09763 5 6.33333 5.00002 6.33333 5.00002C18.6667 5.00002 11.6667 21 22 21C22 21 25.5273 21 29 21M29 21L26.3333 17M29 21C29 21 28.1558 22.2663 26.3333 25L29 21Z" stroke="#E5277B" stroke-width="2" stroke-linecap="round" stroke-linejoin="round"/>
</svg>
