 <svg version="1.0" xmlns="http://www.w3.org/2000/svg" width="700.000000pt" height="1244.000000pt" viewBox="0 0 700.000000 1244.000000" preserveAspectRatio="xMidYMid meet">
<g transform="translate(0.000000,1244.000000) scale(0.100000,-0.100000)" fill="#ffffff" stroke="none">
<path d="M3611 12388 c316 -223 636 -332 964 -331 281 1 519 61 900 226 359
155 352 152 318 155 -21 2 -75 -16 -169 -59 -450 -200 -660 -265 -937 -290
-325 -30 -677 70 -1001 285 -55 36 -111 66 -125 66 -19 0 -10 -10 50 -52z"></path>
<path d="M67 11753 c-47 -3 -67 -8 -67 -17 0 -11 44 -13 248 -9 475 10 884
-55 1374 -218 281 -94 455 -166 1033 -431 1001 -460 1396 -587 1820 -588 242
0 422 42 631 145 145 73 285 173 561 402 305 253 422 338 583 425 180 97 422
172 643 199 81 10 107 16 107 27 0 12 -12 14 -67 8 -201 -20 -478 -98 -643
-181 -191 -96 -313 -182 -630 -445 -341 -283 -482 -380 -657 -451 -176 -72
-321 -99 -534 -99 -427 0 -850 141 -1934 645 -749 349 -1215 499 -1765 570
-123 16 -557 27 -703 18z"></path>
<path d="M0 7398 c0 -16 19 -57 43 -95 152 -239 249 -487 278 -708 17 -136 6
-415 -25 -620 -53 -343 -53 -564 -1 -769 76 -303 290 -546 665 -757 244 -137
622 -279 982 -368 365 -91 652 -130 1268 -176 813 -60 1121 -75 1916 -95 475
-12 590 -21 879 -66 275 -44 619 -152 983 -311 7 -3 12 2 12 11 0 17 -7 20
-220 106 -307 123 -589 199 -885 239 -249 34 -366 41 -970 56 -681 17 -770 22
-1655 85 -549 40 -729 60 -1035 116 -564 103 -1158 331 -1482 570 -415 306
-538 686 -433 1332 45 274 51 586 16 747 -42 191 -158 455 -284 650 -44 68
-52 76 -52 53z"></path>
<path d="M0 2297 c0 -10 67 -16 303 -25 282 -12 515 -28 752 -52 248 -26 874
-102 1150 -140 77 -11 259 -35 405 -55 1016 -136 1259 -195 1670 -400 206
-102 299 -163 820 -533 102 -72 235 -161 295 -197 318 -192 691 -328 1041
-380 205 -30 551 -29 562 3 3 10 -28 11 -150 6 -484 -20 -1017 132 -1486 426
-57 36 -237 160 -400 277 -738 527 -1041 646 -1987 778 -1416 196 -2029 266
-2609 295 -286 14 -366 13 -366 -3z"></path>
<path d="M285 1180 c-227 -21 -302 -37 -281 -57 3 -3 63 2 133 12 497 65 1539
-15 2163 -167 457 -111 867 -311 1190 -582 104 -87 247 -229 319 -319 33 -40
62 -67 73 -67 19 0 18 1 -2 28 -271 347 -650 629 -1095 814 -416 173 -968 278
-1730 328 -213 15 -664 20 -770 10z"></path>
</g>
</svg>