<svg width="288" height="99" viewBox="0 0 288 99" fill="none" xmlns="http://www.w3.org/2000/svg">
<path d="M6.3289 36.0215C6.43307 35.5007 6.07174 35.123 5.24492 34.8887L4.35625 34.6641C2.25338 34.0846 1.23125 33.0625 1.28984 31.5977C1.32239 30.6016 1.76185 29.791 2.6082 29.166C3.46106 28.5345 4.48646 28.2253 5.68437 28.2383C6.87578 28.2513 7.83932 28.5671 8.575 29.1855C9.31067 29.804 9.68502 30.6276 9.69804 31.6562L6.96367 31.6465C6.97669 30.7415 6.52747 30.2826 5.61601 30.2695C5.18633 30.2695 4.81198 30.377 4.49297 30.5918C4.18047 30.8066 3.98841 31.0964 3.91679 31.4609C3.81914 31.9818 4.21302 32.3496 5.09843 32.5645L5.48906 32.6523C6.3875 32.8672 7.07435 33.1146 7.54961 33.3945C8.02487 33.668 8.38945 34.0098 8.64336 34.4199C8.90377 34.8301 9.02422 35.3216 9.00468 35.8945C8.98515 36.5651 8.76705 37.151 8.35039 37.6523C7.94023 38.1536 7.37383 38.541 6.65117 38.8145C5.93502 39.0879 5.17981 39.2148 4.38554 39.1953C3.21367 39.1823 2.23711 38.847 1.45586 38.1895C0.674606 37.5254 0.277471 36.6693 0.26445 35.6211L2.86211 35.6406C2.88815 36.6497 3.42851 37.1608 4.4832 37.1738C4.99101 37.1738 5.40768 37.0697 5.7332 36.8613C6.06523 36.653 6.2638 36.373 6.3289 36.0215ZM21.625 35.1523L24.1348 28.4336H26.8789L22.4355 39H20.1309L19.3496 32.3887L16.2637 39H13.959L13.1777 28.4336H15.7559L15.9219 35.084L18.9395 28.4336H20.9316L21.625 35.1523ZM31.1496 39H28.3762L30.2121 28.4336H32.9855L31.1496 39ZM30.5344 25.748C30.5214 25.3118 30.6646 24.9505 30.9641 24.6641C31.2635 24.3776 31.6249 24.2344 32.048 24.2344C32.4647 24.2214 32.826 24.3483 33.132 24.6152C33.438 24.8822 33.5975 25.2272 33.6105 25.6504C33.6236 26.054 33.4868 26.4056 33.2004 26.7051C32.9204 27.0046 32.5526 27.1608 32.0969 27.1738C31.6867 27.1868 31.3254 27.0632 31.0129 26.8027C30.7069 26.5423 30.5474 26.1908 30.5344 25.748ZM45.4398 33.7461C45.3031 34.8529 45.0134 35.8359 44.5707 36.6953C44.128 37.5547 43.5779 38.1927 42.9203 38.6094C42.2628 39.026 41.5336 39.2246 40.7328 39.2051C39.7107 39.179 38.9034 38.7982 38.3109 38.0625L37.3441 43.0625H34.5902L37.1195 28.4336L39.6586 28.4238L39.473 29.4883C40.2348 28.6289 41.1332 28.2122 42.1684 28.2383C43.2035 28.2643 44.0076 28.6419 44.5805 29.3711C45.1534 30.0938 45.4594 31.0768 45.4984 32.3203C45.5115 32.724 45.4919 33.1992 45.4398 33.7461ZM42.7055 33.541L42.7641 32.6035C42.7771 31.972 42.6599 31.4707 42.4125 31.0996C42.1716 30.7285 41.8168 30.5365 41.348 30.5234C40.5473 30.4974 39.8865 30.8359 39.3656 31.5391L38.5746 35.8945C38.8155 36.5521 39.3331 36.8939 40.1273 36.9199C40.7914 36.9395 41.3448 36.6823 41.7875 36.1484C42.2302 35.6146 42.5362 34.7454 42.7055 33.541ZM53.1285 39.1953C52.204 39.1888 51.3837 38.9642 50.6676 38.5215C49.9579 38.0723 49.4273 37.4603 49.0758 36.6855C48.7242 35.9043 48.5875 35.0449 48.6656 34.1074L48.6949 33.7168C48.7926 32.6882 49.0921 31.7441 49.5934 30.8848C50.0947 30.0254 50.7392 29.3646 51.527 28.9023C52.3147 28.4336 53.1871 28.2122 54.1441 28.2383C55.5048 28.2643 56.5335 28.7656 57.2301 29.7422C57.9332 30.7122 58.2001 31.9427 58.0309 33.4336L57.8746 34.6348H51.4C51.374 35.3184 51.54 35.8652 51.898 36.2754C52.2561 36.6855 52.7444 36.8971 53.3629 36.9102C54.3655 36.9362 55.2444 36.5488 55.9996 35.748L57.2594 37.3105C56.8622 37.9095 56.2893 38.3783 55.5406 38.7168C54.7919 39.0488 53.9879 39.2083 53.1285 39.1953ZM54.0074 30.5137C53.4996 30.5007 53.0471 30.6602 52.65 30.9922C52.2594 31.3242 51.9078 31.9004 51.5953 32.7207H55.3844L55.443 32.4668C55.482 32.2064 55.4853 31.959 55.4527 31.7246C55.3876 31.347 55.2281 31.054 54.9742 30.8457C54.7203 30.6309 54.398 30.5202 54.0074 30.5137ZM72.8223 25.8359L72.3633 28.4336H74.1211L73.7598 30.5039H72.002L71.1035 35.7969C71.0645 36.1289 71.0905 36.3828 71.1816 36.5586C71.2728 36.7344 71.4941 36.8288 71.8457 36.8418C71.9499 36.8483 72.2298 36.832 72.6855 36.793L72.4902 38.9512C72.002 39.1139 71.4746 39.1888 70.9082 39.1758C70.0033 39.1628 69.3294 38.8796 68.8867 38.3262C68.444 37.7728 68.2617 37.0241 68.3398 36.0801L69.248 30.5039H67.7539L68.1152 28.4336H69.6094L70.0586 25.8359H72.8223ZM81.4484 28.2383C82.3794 28.2513 83.1802 28.4922 83.8508 28.9609C84.5279 29.4232 85.0227 30.0645 85.3352 30.8848C85.6542 31.6986 85.7681 32.6035 85.6769 33.5996C85.5272 35.2793 84.9413 36.64 83.9191 37.6816C82.9035 38.7168 81.647 39.2214 80.1496 39.1953C79.2316 39.1823 78.4374 38.9479 77.7668 38.4922C77.0962 38.0299 76.6014 37.3919 76.2824 36.5781C75.9634 35.7643 75.8495 34.8659 75.9406 33.8828C76.1099 32.138 76.7023 30.7513 77.718 29.7227C78.7336 28.694 79.9771 28.1992 81.4484 28.2383ZM78.6652 34.8887C78.6783 35.5137 78.8247 36.0085 79.1047 36.373C79.3846 36.7311 79.7785 36.9167 80.2863 36.9297C81.1327 36.9557 81.7967 36.5684 82.2785 35.7676C82.7603 34.9603 82.9849 33.9023 82.9523 32.5938C82.9263 31.9688 82.7733 31.4707 82.4934 31.0996C82.2199 30.722 81.826 30.5267 81.3117 30.5137C80.4914 30.4876 79.8338 30.875 79.3391 31.6758C78.8508 32.4701 78.6262 33.541 78.6652 34.8887ZM99.3746 28.4238L99.1402 29.6738C99.9866 28.6908 101.012 28.2122 102.216 28.2383C103.212 28.2578 103.948 28.6224 104.423 29.332C104.899 30.0417 105.071 31.0247 104.941 32.2812L103.828 39H101.074L102.207 32.252C102.239 31.998 102.246 31.7669 102.226 31.5586C102.142 30.8945 101.725 30.5527 100.976 30.5332C100.254 30.5072 99.6057 30.8424 99.0328 31.5391L97.7144 39H94.9605L96.7965 28.4336L99.3746 28.4238ZM113.909 39C113.824 38.7331 113.789 38.4141 113.802 38.043C113.007 38.8372 112.109 39.2214 111.106 39.1953C110.182 39.1823 109.414 38.8828 108.802 38.2969C108.196 37.7044 107.913 36.9753 107.952 36.1094C107.998 34.957 108.479 34.0749 109.397 33.4629C110.322 32.8444 111.559 32.5352 113.108 32.5352L114.397 32.5547L114.534 31.9199C114.573 31.7051 114.583 31.5 114.563 31.3047C114.531 30.9987 114.414 30.7611 114.212 30.5918C114.016 30.416 113.756 30.3249 113.43 30.3184C113.001 30.3053 112.636 30.4128 112.337 30.6406C112.037 30.862 111.845 31.1842 111.761 31.6074L108.997 31.6172C109.042 30.6081 109.505 29.791 110.384 29.166C111.269 28.5345 112.36 28.2253 113.655 28.2383C114.853 28.2643 115.79 28.6224 116.468 29.3125C117.145 29.9961 117.428 30.8783 117.317 31.959L116.507 37.0176L116.458 37.6426C116.445 38.1048 116.5 38.4954 116.624 38.8145L116.614 39H113.909ZM111.79 37.0566C112.584 37.0827 113.277 36.7376 113.87 36.0215L114.212 34.1953L113.255 34.1855C112.239 34.2116 111.507 34.5208 111.057 35.1133C110.895 35.3281 110.794 35.5918 110.755 35.9043C110.703 36.2559 110.774 36.5358 110.97 36.7441C111.171 36.946 111.445 37.0501 111.79 37.0566ZM124.391 35.5137L127.398 28.4336H130.367L125.26 39H122.623L120.816 28.4336H123.609L124.391 35.5137ZM134.56 39H131.786L133.622 28.4336H136.396L134.56 39ZM133.945 25.748C133.932 25.3118 134.075 24.9505 134.374 24.6641C134.674 24.3776 135.035 24.2344 135.458 24.2344C135.875 24.2214 136.236 24.3483 136.542 24.6152C136.848 24.8822 137.008 25.2272 137.021 25.6504C137.034 26.054 136.897 26.4056 136.611 26.7051C136.331 27.0046 135.963 27.1608 135.507 27.1738C135.097 27.1868 134.736 27.0632 134.423 26.8027C134.117 26.5423 133.958 26.1908 133.945 25.748ZM139.231 33.707C139.426 32.0729 139.957 30.748 140.823 29.7324C141.695 28.7103 142.792 28.209 144.114 28.2285C145.24 28.2546 146.08 28.6615 146.633 29.4492L146.995 28.4238L149.524 28.4336L147.795 38.6387C147.607 40.0449 147.008 41.1582 145.998 41.9785C144.989 42.7988 143.739 43.196 142.248 43.1699C141.519 43.1569 140.823 42.9974 140.159 42.6914C139.495 42.3919 138.948 41.9785 138.518 41.4512L139.885 39.7715C140.497 40.5462 141.265 40.9466 142.19 40.9727C142.906 40.9987 143.518 40.8099 144.026 40.4062C144.534 40.0091 144.879 39.446 145.061 38.7168L145.217 38.082C144.449 38.8503 143.586 39.2214 142.629 39.1953C141.601 39.1823 140.784 38.8014 140.178 38.0527C139.573 37.2975 139.241 36.3177 139.182 35.1133C139.162 34.7161 139.179 34.2474 139.231 33.707ZM141.936 34.8594C141.936 35.4714 142.063 35.9629 142.317 36.334C142.577 36.6986 142.952 36.8906 143.44 36.9102C144.189 36.9362 144.853 36.6172 145.432 35.9531L146.252 31.4805C145.972 30.8685 145.455 30.5495 144.7 30.5234C143.996 30.5039 143.401 30.7871 142.912 31.373C142.424 31.959 142.118 32.737 141.995 33.707C141.949 34.1823 141.929 34.5664 141.936 34.8594ZM157.789 39C157.704 38.7331 157.668 38.4141 157.681 38.043C156.887 38.8372 155.989 39.2214 154.986 39.1953C154.061 39.1823 153.293 38.8828 152.681 38.2969C152.076 37.7044 151.793 36.9753 151.832 36.1094C151.877 34.957 152.359 34.0749 153.277 33.4629C154.201 32.8444 155.438 32.5352 156.988 32.5352L158.277 32.5547L158.414 31.9199C158.453 31.7051 158.462 31.5 158.443 31.3047C158.41 30.9987 158.293 30.7611 158.091 30.5918C157.896 30.416 157.636 30.3249 157.31 30.3184C156.88 30.3053 156.516 30.4128 156.216 30.6406C155.917 30.862 155.725 31.1842 155.64 31.6074L152.877 31.6172C152.922 30.6081 153.384 29.791 154.263 29.166C155.149 28.5345 156.239 28.2253 157.535 28.2383C158.733 28.2643 159.67 28.6224 160.347 29.3125C161.024 29.9961 161.308 30.8783 161.197 31.959L160.386 37.0176L160.337 37.6426C160.324 38.1048 160.38 38.4954 160.504 38.8145L160.494 39H157.789ZM155.67 37.0566C156.464 37.0827 157.157 36.7376 157.75 36.0215L158.091 34.1953L157.134 34.1855C156.119 34.2116 155.386 34.5208 154.937 35.1133C154.774 35.3281 154.673 35.5918 154.634 35.9043C154.582 36.2559 154.654 36.5358 154.849 36.7441C155.051 36.946 155.324 37.0501 155.67 37.0566ZM169.569 25.8359L169.11 28.4336H170.868L170.507 30.5039H168.749L167.85 35.7969C167.811 36.1289 167.837 36.3828 167.929 36.5586C168.02 36.7344 168.241 36.8288 168.593 36.8418C168.697 36.8483 168.977 36.832 169.432 36.793L169.237 38.9512C168.749 39.1139 168.221 39.1888 167.655 39.1758C166.75 39.1628 166.076 38.8796 165.634 38.3262C165.191 37.7728 165.009 37.0241 165.087 36.0801L165.995 30.5039H164.501L164.862 28.4336H166.356L166.805 25.8359H169.569ZM177.463 39.1953C176.538 39.1888 175.718 38.9642 175.002 38.5215C174.292 38.0723 173.762 37.4603 173.41 36.6855C173.059 35.9043 172.922 35.0449 173 34.1074L173.029 33.7168C173.127 32.6882 173.426 31.7441 173.928 30.8848C174.429 30.0254 175.074 29.3646 175.861 28.9023C176.649 28.4336 177.521 28.2122 178.479 28.2383C179.839 28.2643 180.868 28.7656 181.564 29.7422C182.268 30.7122 182.535 31.9427 182.365 33.4336L182.209 34.6348H175.734C175.708 35.3184 175.874 35.8652 176.232 36.2754C176.59 36.6855 177.079 36.8971 177.697 36.9102C178.7 36.9362 179.579 36.5488 180.334 35.748L181.594 37.3105C181.197 37.9095 180.624 38.3783 179.875 38.7168C179.126 39.0488 178.322 39.2083 177.463 39.1953ZM178.342 30.5137C177.834 30.5007 177.382 30.6602 176.984 30.9922C176.594 31.3242 176.242 31.9004 175.93 32.7207H179.719L179.777 32.4668C179.816 32.2064 179.82 31.959 179.787 31.7246C179.722 31.347 179.562 31.054 179.309 30.8457C179.055 30.6309 178.732 30.5202 178.342 30.5137Z" fill="white"/>
<path d="M266.945 19.0464C266.945 19.0464 255.505 40.5402 254.197 43L244 41L236.819 52.2369L227.806 44.6911C227.607 44.5282 227.375 44.3759 227.13 44.246C226.219 43.7616 225.173 43.6928 224.252 43.9776L220.658 45.1074L227.456 67.5953C227.838 68.8598 228.688 69.9425 229.91 70.5923L252.131 82.4065C253.309 83.0332 254.69 83.163 255.97 82.7674C257.249 82.3718 258.322 81.4831 258.953 80.297L269.653 60.1713C270.64 58.3153 270.373 56.1369 269.13 54.6154L263.5 47.5C263.096 47.027 272.5 22 272.5 22L266.945 19.0464ZM249.441 98.1865L254.197 89.2417L227.532 75.0646L222.776 84.0094L249.441 98.1865Z" fill="white"/>
<path d="M243.5 17.5H26L53 2" stroke="white" stroke-width="4" stroke-linecap="round" stroke-linejoin="round"/>
</svg>
