<svg width="288" height="99" viewBox="0 0 288 99" fill="none" xmlns="http://www.w3.org/2000/svg">
<path d="M6.3289 36.0215C6.43307 35.5007 6.07174 35.123 5.24492 34.8887L4.35625 34.6641C2.25338 34.0846 1.23125 33.0625 1.28984 31.5977C1.32239 30.6016 1.76185 29.791 2.6082 29.166C3.46106 28.5345 4.48646 28.2253 5.68437 28.2383C6.87578 28.2513 7.83932 28.5671 8.575 29.1855C9.31067 29.804 9.68502 30.6276 9.69804 31.6562L6.96367 31.6465C6.97669 30.7415 6.52747 30.2826 5.61601 30.2695C5.18633 30.2695 4.81198 30.377 4.49297 30.5918C4.18047 30.8066 3.98841 31.0964 3.91679 31.4609C3.81914 31.9818 4.21302 32.3496 5.09843 32.5645L5.48906 32.6523C6.3875 32.8672 7.07435 33.1146 7.54961 33.3945C8.02487 33.668 8.38945 34.0098 8.64336 34.4199C8.90377 34.8301 9.02422 35.3216 9.00468 35.8945C8.98515 36.5651 8.76705 37.151 8.35039 37.6523C7.94023 38.1536 7.37383 38.541 6.65117 38.8145C5.93502 39.0879 5.17981 39.2148 4.38554 39.1953C3.21367 39.1823 2.23711 38.847 1.45586 38.1895C0.674606 37.5254 0.277471 36.6693 0.26445 35.6211L2.86211 35.6406C2.88815 36.6497 3.42851 37.1608 4.4832 37.1738C4.99101 37.1738 5.40768 37.0697 5.7332 36.8613C6.06523 36.653 6.2638 36.373 6.3289 36.0215ZM21.625 35.1523L24.1348 28.4336H26.8789L22.4355 39H20.1309L19.3496 32.3887L16.2637 39H13.959L13.1777 28.4336H15.7559L15.9219 35.084L18.9395 28.4336H20.9316L21.625 35.1523ZM31.1496 39H28.3762L30.2121 28.4336H32.9855L31.1496 39ZM30.5344 25.748C30.5214 25.3118 30.6646 24.9505 30.9641 24.6641C31.2635 24.3776 31.6249 24.2344 32.048 24.2344C32.4647 24.2214 32.826 24.3483 33.132 24.6152C33.438 24.8822 33.5975 25.2272 33.6105 25.6504C33.6236 26.054 33.4868 26.4056 33.2004 26.7051C32.9204 27.0046 32.5526 27.1608 32.0969 27.1738C31.6867 27.1868 31.3254 27.0632 31.0129 26.8027C30.7069 26.5423 30.5474 26.1908 30.5344 25.748ZM45.4398 33.7461C45.3031 34.8529 45.0134 35.8359 44.5707 36.6953C44.128 37.5547 43.5779 38.1927 42.9203 38.6094C42.2628 39.026 41.5336 39.2246 40.7328 39.2051C39.7107 39.179 38.9034 38.7982 38.3109 38.0625L37.3441 43.0625H34.5902L37.1195 28.4336L39.6586 28.4238L39.473 29.4883C40.2348 28.6289 41.1332 28.2122 42.1684 28.2383C43.2035 28.2643 44.0076 28.6419 44.5805 29.3711C45.1534 30.0938 45.4594 31.0768 45.4984 32.3203C45.5115 32.724 45.4919 33.1992 45.4398 33.7461ZM42.7055 33.541L42.7641 32.6035C42.7771 31.972 42.6599 31.4707 42.4125 31.0996C42.1716 30.7285 41.8168 30.5365 41.348 30.5234C40.5473 30.4974 39.8865 30.8359 39.3656 31.5391L38.5746 35.8945C38.8155 36.5521 39.3331 36.8939 40.1273 36.9199C40.7914 36.9395 41.3448 36.6823 41.7875 36.1484C42.2302 35.6146 42.5362 34.7454 42.7055 33.541ZM53.1285 39.1953C52.204 39.1888 51.3837 38.9642 50.6676 38.5215C49.9579 38.0723 49.4273 37.4603 49.0758 36.6855C48.7242 35.9043 48.5875 35.0449 48.6656 34.1074L48.6949 33.7168C48.7926 32.6882 49.0921 31.7441 49.5934 30.8848C50.0947 30.0254 50.7392 29.3646 51.527 28.9023C52.3147 28.4336 53.1871 28.2122 54.1441 28.2383C55.5048 28.2643 56.5335 28.7656 57.2301 29.7422C57.9332 30.7122 58.2001 31.9427 58.0309 33.4336L57.8746 34.6348H51.4C51.374 35.3184 51.54 35.8652 51.898 36.2754C52.2561 36.6855 52.7444 36.8971 53.3629 36.9102C54.3655 36.9362 55.2444 36.5488 55.9996 35.748L57.2594 37.3105C56.8622 37.9095 56.2893 38.3783 55.5406 38.7168C54.7919 39.0488 53.9879 39.2083 53.1285 39.1953ZM54.0074 30.5137C53.4996 30.5007 53.0471 30.6602 52.65 30.9922C52.2594 31.3242 51.9078 31.9004 51.5953 32.7207H55.3844L55.443 32.4668C55.482 32.2064 55.4853 31.959 55.4527 31.7246C55.3876 31.347 55.2281 31.054 54.9742 30.8457C54.7203 30.6309 54.398 30.5202 54.0074 30.5137ZM72.8223 25.8359L72.3633 28.4336H74.1211L73.7598 30.5039H72.002L71.1035 35.7969C71.0645 36.1289 71.0905 36.3828 71.1816 36.5586C71.2728 36.7344 71.4941 36.8288 71.8457 36.8418C71.9499 36.8483 72.2298 36.832 72.6855 36.793L72.4902 38.9512C72.002 39.1139 71.4746 39.1888 70.9082 39.1758C70.0033 39.1628 69.3294 38.8796 68.8867 38.3262C68.444 37.7728 68.2617 37.0241 68.3398 36.0801L69.248 30.5039H67.7539L68.1152 28.4336H69.6094L70.0586 25.8359H72.8223ZM81.4484 28.2383C82.3794 28.2513 83.1802 28.4922 83.8508 28.9609C84.5279 29.4232 85.0227 30.0645 85.3352 30.8848C85.6542 31.6986 85.7681 32.6035 85.6769 33.5996C85.5272 35.2793 84.9413 36.64 83.9191 37.6816C82.9035 38.7168 81.647 39.2214 80.1496 39.1953C79.2316 39.1823 78.4374 38.9479 77.7668 38.4922C77.0962 38.0299 76.6014 37.3919 76.2824 36.5781C75.9634 35.7643 75.8495 34.8659 75.9406 33.8828C76.1099 32.138 76.7023 30.7513 77.718 29.7227C78.7336 28.694 79.9771 28.1992 81.4484 28.2383ZM78.6652 34.8887C78.6783 35.5137 78.8247 36.0085 79.1047 36.373C79.3846 36.7311 79.7785 36.9167 80.2863 36.9297C81.1327 36.9557 81.7967 36.5684 82.2785 35.7676C82.7603 34.9603 82.9849 33.9023 82.9523 32.5938C82.9263 31.9688 82.7733 31.4707 82.4934 31.0996C82.2199 30.722 81.826 30.5267 81.3117 30.5137C80.4914 30.4876 79.8338 30.875 79.3391 31.6758C78.8508 32.4701 78.6262 33.541 78.6652 34.8887ZM99.3746 28.4238L99.1402 29.6738C99.9866 28.6908 101.012 28.2122 102.216 28.2383C103.212 28.2578 103.948 28.6224 104.423 29.332C104.899 30.0417 105.071 31.0247 104.941 32.2812L103.828 39H101.074L102.207 32.252C102.239 31.998 102.246 31.7669 102.226 31.5586C102.142 30.8945 101.725 30.5527 100.976 30.5332C100.254 30.5072 99.6057 30.8424 99.0328 31.5391L97.7144 39H94.9605L96.7965 28.4336L99.3746 28.4238ZM113.909 39C113.824 38.7331 113.789 38.4141 113.802 38.043C113.007 38.8372 112.109 39.2214 111.106 39.1953C110.182 39.1823 109.414 38.8828 108.802 38.2969C108.196 37.7044 107.913 36.9753 107.952 36.1094C107.998 34.957 108.479 34.0749 109.397 33.4629C110.322 32.8444 111.559 32.5352 113.108 32.5352L114.397 32.5547L114.534 31.9199C114.573 31.7051 114.583 31.5 114.563 31.3047C114.531 30.9987 114.414 30.7611 114.212 30.5918C114.016 30.416 113.756 30.3249 113.43 30.3184C113.001 30.3053 112.636 30.4128 112.337 30.6406C112.037 30.862 111.845 31.1842 111.761 31.6074L108.997 31.6172C109.042 30.6081 109.505 29.791 110.384 29.166C111.269 28.5345 112.36 28.2253 113.655 28.2383C114.853 28.2643 115.79 28.6224 116.468 29.3125C117.145 29.9961 117.428 30.8783 117.317 31.959L116.507 37.0176L116.458 37.6426C116.445 38.1048 116.5 38.4954 116.624 38.8145L116.614 39H113.909ZM111.79 37.0566C112.584 37.0827 113.277 36.7376 113.87 36.0215L114.212 34.1953L113.255 34.1855C112.239 34.2116 111.507 34.5208 111.057 35.1133C110.895 35.3281 110.794 35.5918 110.755 35.9043C110.703 36.2559 110.774 36.5358 110.97 36.7441C111.171 36.946 111.445 37.0501 111.79 37.0566ZM124.391 35.5137L127.398 28.4336H130.367L125.26 39H122.623L120.816 28.4336H123.609L124.391 35.5137ZM134.56 39H131.786L133.622 28.4336H136.396L134.56 39ZM133.945 25.748C133.932 25.3118 134.075 24.9505 134.374 24.6641C134.674 24.3776 135.035 24.2344 135.458 24.2344C135.875 24.2214 136.236 24.3483 136.542 24.6152C136.848 24.8822 137.008 25.2272 137.021 25.6504C137.034 26.054 136.897 26.4056 136.611 26.7051C136.331 27.0046 135.963 27.1608 135.507 27.1738C135.097 27.1868 134.736 27.0632 134.423 26.8027C134.117 26.5423 133.958 26.1908 133.945 25.748ZM139.231 33.707C139.426 32.0729 139.957 30.748 140.823 29.7324C141.695 28.7103 142.792 28.209 144.114 28.2285C145.24 28.2546 146.08 28.6615 146.633 29.4492L146.995 28.4238L149.524 28.4336L147.795 38.6387C147.607 40.0449 147.008 41.1582 145.998 41.9785C144.989 42.7988 143.739 43.196 142.248 43.1699C141.519 43.1569 140.823 42.9974 140.159 42.6914C139.495 42.3919 138.948 41.9785 138.518 41.4512L139.885 39.7715C140.497 40.5462 141.265 40.9466 142.19 40.9727C142.906 40.9987 143.518 40.8099 144.026 40.4062C144.534 40.0091 144.879 39.446 145.061 38.7168L145.217 38.082C144.449 38.8503 143.586 39.2214 142.629 39.1953C141.601 39.1823 140.784 38.8014 140.178 38.0527C139.573 37.2975 139.241 36.3177 139.182 35.1133C139.162 34.7161 139.179 34.2474 139.231 33.707ZM141.936 34.8594C141.936 35.4714 142.063 35.9629 142.317 36.334C142.577 36.6986 142.952 36.8906 143.44 36.9102C144.189 36.9362 144.853 36.6172 145.432 35.9531L146.252 31.4805C145.972 30.8685 145.455 30.5495 144.7 30.5234C143.996 30.5039 143.401 30.7871 142.912 31.373C142.424 31.959 142.118 32.737 141.995 33.707C141.949 34.1823 141.929 34.5664 141.936 34.8594ZM157.789 39C157.704 38.7331 157.668 38.4141 157.681 38.043C156.887 38.8372 155.989 39.2214 154.986 39.1953C154.061 39.1823 153.293 38.8828 152.681 38.2969C152.076 37.7044 151.793 36.9753 151.832 36.1094C151.877 34.957 152.359 34.0749 153.277 33.4629C154.201 32.8444 155.438 32.5352 156.988 32.5352L158.277 32.5547L158.414 31.9199C158.453 31.7051 158.462 31.5 158.443 31.3047C158.41 30.9987 158.293 30.7611 158.091 30.5918C157.896 30.416 157.636 30.3249 157.31 30.3184C156.88 30.3053 156.516 30.4128 156.216 30.6406C155.917 30.862 155.725 31.1842 155.64 31.6074L152.877 31.6172C152.922 30.6081 153.384 29.791 154.263 29.166C155.149 28.5345 156.239 28.2253 157.535 28.2383C158.733 28.2643 159.67 28.6224 160.347 29.3125C161.024 29.9961 161.308 30.8783 161.197 31.959L160.386 37.0176L160.337 37.6426C160.324 38.1048 160.38 38.4954 160.504 38.8145L160.494 39H157.789ZM155.67 37.0566C156.464 37.0827 157.157 36.7376 157.75 36.0215L158.091 34.1953L157.134 34.1855C156.119 34.2116 155.386 34.5208 154.937 35.1133C154.774 35.3281 154.673 35.5918 154.634 35.9043C154.582 36.2559 154.654 36.5358 154.849 36.7441C155.051 36.946 155.324 37.0501 155.67 37.0566ZM169.569 25.8359L169.11 28.4336H170.868L170.507 30.5039H168.749L167.85 35.7969C167.811 36.1289 167.837 36.3828 167.929 36.5586C168.02 36.7344 168.241 36.8288 168.593 36.8418C168.697 36.8483 168.977 36.832 169.432 36.793L169.237 38.9512C168.749 39.1139 168.221 39.1888 167.655 39.1758C166.75 39.1628 166.076 38.8796 165.634 38.3262C165.191 37.7728 165.009 37.0241 165.087 36.0801L165.995 30.5039H164.501L164.862 28.4336H166.356L166.805 25.8359H169.569ZM177.463 39.1953C176.538 39.1888 175.718 38.9642 175.002 38.5215C174.292 38.0723 173.762 37.4603 173.41 36.6855C173.059 35.9043 172.922 35.0449 173 34.1074L173.029 33.7168C173.127 32.6882 173.426 31.7441 173.928 30.8848C174.429 30.0254 175.074 29.3646 175.861 28.9023C176.649 28.4336 177.521 28.2122 178.479 28.2383C179.839 28.2643 180.868 28.7656 181.564 29.7422C182.268 30.7122 182.535 31.9427 182.365 33.4336L182.209 34.6348H175.734C175.708 35.3184 175.874 35.8652 176.232 36.2754C176.59 36.6855 177.079 36.8971 177.697 36.9102C178.7 36.9362 179.579 36.5488 180.334 35.748L181.594 37.3105C181.197 37.9095 180.624 38.3783 179.875 38.7168C179.126 39.0488 178.322 39.2083 177.463 39.1953ZM178.342 30.5137C177.834 30.5007 177.382 30.6602 176.984 30.9922C176.594 31.3242 176.242 31.9004 175.93 32.7207H179.719L179.777 32.4668C179.816 32.2064 179.82 31.959 179.787 31.7246C179.722 31.347 179.562 31.054 179.309 30.8457C179.055 30.6309 178.732 30.5202 178.342 30.5137Z" fill="white"/>
<path d="M47.7834 63.4688L47.4162 65.5469H48.8225L48.5334 67.2031H47.1272L46.4084 71.4375C46.3772 71.7031 46.398 71.9062 46.4709 72.0469C46.5438 72.1875 46.7209 72.263 47.0022 72.2734C47.0855 72.2786 47.3095 72.2656 47.6741 72.2344L47.5178 73.9609C47.1272 74.0911 46.7053 74.151 46.2522 74.1406C45.5282 74.1302 44.9892 73.9036 44.635 73.4609C44.2808 73.0182 44.135 72.4193 44.1975 71.6641L44.9241 67.2031H43.7287L44.0178 65.5469H45.2131L45.5725 63.4688H47.7834ZM54.9734 74C54.9057 73.7865 54.8771 73.5312 54.8875 73.2344C54.2521 73.8698 53.5333 74.1771 52.7312 74.1562C51.9917 74.1458 51.3771 73.9062 50.8875 73.4375C50.4031 72.9635 50.1766 72.3802 50.2078 71.6875C50.2443 70.7656 50.6297 70.0599 51.3641 69.5703C52.1036 69.0755 53.0932 68.8281 54.3328 68.8281L55.3641 68.8438L55.4734 68.3359C55.5047 68.1641 55.5125 68 55.4969 67.8438C55.4708 67.599 55.3771 67.4089 55.2156 67.2734C55.0594 67.1328 54.851 67.0599 54.5906 67.0547C54.2469 67.0443 53.9552 67.1302 53.7156 67.3125C53.476 67.4896 53.3224 67.7474 53.2547 68.0859L51.0437 68.0938C51.0802 67.2865 51.45 66.6328 52.1531 66.1328C52.8615 65.6276 53.7338 65.3802 54.7703 65.3906C55.7286 65.4115 56.4786 65.6979 57.0203 66.25C57.562 66.7969 57.7885 67.5026 57.7 68.3672L57.0516 72.4141L57.0125 72.9141C57.0021 73.2839 57.0463 73.5964 57.1453 73.8516L57.1375 74H54.9734ZM53.2781 72.4453C53.9135 72.4661 54.4682 72.1901 54.9422 71.6172L55.2156 70.1562L54.45 70.1484C53.6375 70.1693 53.0516 70.4167 52.6922 70.8906C52.562 71.0625 52.4812 71.2734 52.45 71.5234C52.4083 71.8047 52.4656 72.0286 52.6219 72.1953C52.7833 72.3568 53.0021 72.4401 53.2781 72.4453ZM68.0462 69.7969C67.9369 70.6823 67.7051 71.4688 67.3509 72.1562C66.9968 72.8438 66.5567 73.3542 66.0306 73.6875C65.5046 74.0208 64.9212 74.1797 64.2806 74.1641C63.4629 74.1432 62.8171 73.8385 62.3431 73.25L61.5697 77.25H59.3666L61.39 65.5469L63.4212 65.5391L63.2728 66.3906C63.8822 65.7031 64.6009 65.3698 65.4291 65.3906C66.2572 65.4115 66.9004 65.7135 67.3587 66.2969C67.8171 66.875 68.0619 67.6615 68.0931 68.6562C68.1035 68.9792 68.0879 69.3594 68.0462 69.7969ZM65.8587 69.6328L65.9056 68.8828C65.916 68.3776 65.8223 67.9766 65.6244 67.6797C65.4317 67.3828 65.1478 67.2292 64.7728 67.2188C64.1322 67.1979 63.6035 67.4688 63.1869 68.0312L62.5541 71.5156C62.7468 72.0417 63.1608 72.3151 63.7962 72.3359C64.3275 72.3516 64.7702 72.1458 65.1244 71.7188C65.4785 71.2917 65.7233 70.5964 65.8587 69.6328ZM80.4653 74C80.3976 73.7865 80.369 73.5312 80.3794 73.2344C79.744 73.8698 79.0252 74.1771 78.2231 74.1562C77.4835 74.1458 76.869 73.9062 76.3794 73.4375C75.895 72.9635 75.6684 72.3802 75.6997 71.6875C75.7361 70.7656 76.1216 70.0599 76.8559 69.5703C77.5955 69.0755 78.5851 68.8281 79.8247 68.8281L80.8559 68.8438L80.9653 68.3359C80.9966 68.1641 81.0044 68 80.9887 67.8438C80.9627 67.599 80.869 67.4089 80.7075 67.2734C80.5512 67.1328 80.3429 67.0599 80.0825 67.0547C79.7387 67.0443 79.4471 67.1302 79.2075 67.3125C78.9679 67.4896 78.8143 67.7474 78.7466 68.0859L76.5356 68.0938C76.5721 67.2865 76.9419 66.6328 77.645 66.1328C78.3533 65.6276 79.2257 65.3802 80.2622 65.3906C81.2205 65.4115 81.9705 65.6979 82.5122 66.25C83.0539 66.7969 83.2804 67.5026 83.1919 68.3672L82.5434 72.4141L82.5044 72.9141C82.494 73.2839 82.5382 73.5964 82.6372 73.8516L82.6294 74H80.4653ZM78.77 72.4453C79.4054 72.4661 79.9601 72.1901 80.4341 71.6172L80.7075 70.1562L79.9419 70.1484C79.1294 70.1693 78.5434 70.4167 78.1841 70.8906C78.0539 71.0625 77.9731 71.2734 77.9419 71.5234C77.9002 71.8047 77.9575 72.0286 78.1137 72.1953C78.2752 72.3568 78.494 72.4401 78.77 72.4453ZM88.9053 65.5391L88.7178 66.5391C89.3949 65.7526 90.2152 65.3698 91.1787 65.3906C91.9756 65.4062 92.5642 65.6979 92.9444 66.2656C93.3246 66.8333 93.4626 67.6198 93.3584 68.625L92.4678 74H90.2647L91.1709 68.6016C91.197 68.3984 91.2022 68.2135 91.1866 68.0469C91.1188 67.5156 90.7855 67.2422 90.1866 67.2266C89.6084 67.2057 89.0902 67.474 88.6319 68.0312L87.5772 74H85.3741L86.8428 65.5469L88.9053 65.5391ZM99.2281 70.7812L101.642 65.5469H104.095L99.15 75.2734C98.7958 76.0182 98.3792 76.5651 97.9 76.9141C97.426 77.263 96.8766 77.4375 96.2516 77.4375C96.0068 77.4375 95.6526 77.3828 95.1891 77.2734L95.3531 75.5547L95.6578 75.5703C96.3766 75.5911 96.9026 75.3281 97.2359 74.7812L97.7203 73.8828L96.3375 65.5469H98.6187L99.2281 70.7812ZM112.59 70.9219L114.598 65.5469H116.793L113.238 74H111.395L110.77 68.7109L108.301 74H106.457L105.832 65.5469H107.895L108.027 70.8672L110.442 65.5469H112.035L112.59 70.9219ZM121.241 66.4844C121.902 65.7448 122.665 65.3802 123.53 65.3906C124.369 65.4115 124.983 65.7135 125.374 66.2969C125.77 66.875 125.918 67.6667 125.819 68.6719L124.928 74H122.725L123.624 68.6484C123.65 68.4453 123.655 68.2578 123.639 68.0859C123.587 67.5234 123.259 67.2344 122.655 67.2188C122.061 67.1979 121.54 67.4531 121.092 67.9844L120.03 74H117.827L119.905 62H122.116L121.241 66.4844ZM132.103 74.1562C131.363 74.151 130.707 73.9714 130.134 73.6172C129.566 73.2578 129.142 72.7682 128.861 72.1484C128.579 71.5234 128.47 70.8359 128.532 70.0859L128.556 69.7734C128.634 68.9505 128.874 68.1953 129.275 67.5078C129.676 66.8203 130.191 66.2917 130.822 65.9219C131.452 65.5469 132.15 65.3698 132.915 65.3906C134.004 65.4115 134.827 65.8125 135.384 66.5938C135.947 67.3698 136.16 68.3542 136.025 69.5469L135.9 70.5078H130.72C130.699 71.0547 130.832 71.4922 131.118 71.8203C131.405 72.1484 131.796 72.3177 132.29 72.3281C133.092 72.349 133.796 72.0391 134.4 71.3984L135.407 72.6484C135.09 73.1276 134.631 73.5026 134.032 73.7734C133.434 74.0391 132.79 74.1667 132.103 74.1562ZM132.806 67.2109C132.4 67.2005 132.038 67.3281 131.72 67.5938C131.407 67.8594 131.126 68.3203 130.876 68.9766H133.907L133.954 68.7734C133.986 68.5651 133.988 68.3672 133.962 68.1797C133.91 67.8776 133.782 67.6432 133.579 67.4766C133.376 67.3047 133.118 67.2161 132.806 67.2109ZM143.785 67.6641C143.483 67.612 143.236 67.5859 143.043 67.5859C142.256 67.5651 141.634 67.8594 141.176 68.4688L140.199 74H137.996L139.465 65.5469L141.535 65.5391L141.332 66.5703C141.863 65.7734 142.519 65.375 143.301 65.375C143.519 65.375 143.775 65.4115 144.066 65.4844L143.785 67.6641ZM149.045 74.1562C148.306 74.151 147.649 73.9714 147.077 73.6172C146.509 73.2578 146.084 72.7682 145.803 72.1484C145.522 71.5234 145.412 70.8359 145.475 70.0859L145.498 69.7734C145.577 68.9505 145.816 68.1953 146.217 67.5078C146.618 66.8203 147.134 66.2917 147.764 65.9219C148.394 65.5469 149.092 65.3698 149.858 65.3906C150.946 65.4115 151.769 65.8125 152.327 66.5938C152.889 67.3698 153.103 68.3542 152.967 69.5469L152.842 70.5078H147.662C147.642 71.0547 147.774 71.4922 148.061 71.8203C148.347 72.1484 148.738 72.3177 149.233 72.3281C150.035 72.349 150.738 72.0391 151.342 71.3984L152.35 72.6484C152.032 73.1276 151.574 73.5026 150.975 73.7734C150.376 74.0391 149.733 74.1667 149.045 74.1562ZM149.748 67.2109C149.342 67.2005 148.98 67.3281 148.662 67.5938C148.35 67.8594 148.069 68.3203 147.819 68.9766H150.85L150.897 68.7734C150.928 68.5651 150.931 68.3672 150.905 68.1797C150.853 67.8776 150.725 67.6432 150.522 67.4766C150.319 67.3047 150.061 67.2161 149.748 67.2109ZM164.8 63.4688L164.433 65.5469H165.839L165.55 67.2031H164.144L163.425 71.4375C163.394 71.7031 163.415 71.9062 163.488 72.0469C163.561 72.1875 163.738 72.263 164.019 72.2734C164.102 72.2786 164.326 72.2656 164.691 72.2344L164.535 73.9609C164.144 74.0911 163.722 74.151 163.269 74.1406C162.545 74.1302 162.006 73.9036 161.652 73.4609C161.298 73.0182 161.152 72.4193 161.214 71.6641L161.941 67.2031H160.746L161.035 65.5469H162.23L162.589 63.4688H164.8ZM171.701 65.3906C172.446 65.401 173.087 65.5938 173.623 65.9688C174.165 66.3385 174.561 66.8516 174.811 67.5078C175.066 68.1589 175.157 68.8828 175.084 69.6797C174.964 71.0234 174.496 72.112 173.678 72.9453C172.865 73.7734 171.86 74.1771 170.662 74.1562C169.928 74.1458 169.292 73.9583 168.756 73.5938C168.219 73.224 167.824 72.7135 167.568 72.0625C167.313 71.4115 167.222 70.6927 167.295 69.9062C167.43 68.5104 167.904 67.401 168.717 66.5781C169.529 65.7552 170.524 65.3594 171.701 65.3906ZM169.475 70.7109C169.485 71.2109 169.602 71.6068 169.826 71.8984C170.05 72.1849 170.365 72.3333 170.772 72.3438C171.449 72.3646 171.98 72.0547 172.365 71.4141C172.751 70.7682 172.93 69.9219 172.904 68.875C172.884 68.375 172.761 67.9766 172.537 67.6797C172.318 67.3776 172.003 67.2214 171.592 67.2109C170.936 67.1901 170.41 67.5 170.014 68.1406C169.623 68.776 169.443 69.6328 169.475 70.7109ZM187.456 71.6172C187.54 71.2005 187.251 70.8984 186.589 70.7109L185.878 70.5312C184.196 70.0677 183.378 69.25 183.425 68.0781C183.451 67.2812 183.803 66.6328 184.48 66.1328C185.162 65.6276 185.982 65.3802 186.941 65.3906C187.894 65.401 188.665 65.6536 189.253 66.1484C189.842 66.6432 190.141 67.3021 190.152 68.125L187.964 68.1172C187.974 67.3932 187.615 67.026 186.886 67.0156C186.542 67.0156 186.243 67.1016 185.988 67.2734C185.738 67.4453 185.584 67.6771 185.527 67.9688C185.448 68.3854 185.764 68.6797 186.472 68.8516L186.784 68.9219C187.503 69.0938 188.053 69.2917 188.433 69.5156C188.813 69.7344 189.105 70.0078 189.308 70.3359C189.516 70.6641 189.613 71.0573 189.597 71.5156C189.581 72.0521 189.407 72.5208 189.073 72.9219C188.745 73.3229 188.292 73.6328 187.714 73.8516C187.141 74.0703 186.537 74.1719 185.902 74.1562C184.964 74.1458 184.183 73.8776 183.558 73.3516C182.933 72.8203 182.615 72.1354 182.605 71.2969L184.683 71.3125C184.704 72.1198 185.136 72.5286 185.98 72.5391C186.386 72.5391 186.719 72.4557 186.98 72.2891C187.245 72.1224 187.404 71.8984 187.456 71.6172ZM196.529 63.4688L196.162 65.5469H197.568L197.279 67.2031H195.873L195.154 71.4375C195.123 71.7031 195.144 71.9062 195.217 72.0469C195.289 72.1875 195.467 72.263 195.748 72.2734C195.831 72.2786 196.055 72.2656 196.42 72.2344L196.263 73.9609C195.873 74.0911 195.451 74.151 194.998 74.1406C194.274 74.1302 193.735 73.9036 193.381 73.4609C193.026 73.0182 192.881 72.4193 192.943 71.6641L193.67 67.2031H192.474L192.763 65.5469H193.959L194.318 63.4688H196.529ZM203.719 74C203.651 73.7865 203.623 73.5312 203.633 73.2344C202.998 73.8698 202.279 74.1771 201.477 74.1562C200.737 74.1458 200.123 73.9062 199.633 73.4375C199.149 72.9635 198.922 72.3802 198.953 71.6875C198.99 70.7656 199.375 70.0599 200.11 69.5703C200.849 69.0755 201.839 68.8281 203.078 68.8281L204.11 68.8438L204.219 68.3359C204.25 68.1641 204.258 68 204.242 67.8438C204.216 67.599 204.123 67.4089 203.961 67.2734C203.805 67.1328 203.597 67.0599 203.336 67.0547C202.992 67.0443 202.701 67.1302 202.461 67.3125C202.222 67.4896 202.068 67.7474 202 68.0859L199.789 68.0938C199.826 67.2865 200.196 66.6328 200.899 66.1328C201.607 65.6276 202.479 65.3802 203.516 65.3906C204.474 65.4115 205.224 65.6979 205.766 66.25C206.308 66.7969 206.534 67.5026 206.446 68.3672L205.797 72.4141L205.758 72.9141C205.748 73.2839 205.792 73.5964 205.891 73.8516L205.883 74H203.719ZM202.024 72.4453C202.659 72.4661 203.214 72.1901 203.688 71.6172L203.961 70.1562L203.196 70.1484C202.383 70.1693 201.797 70.4167 201.438 70.8906C201.308 71.0625 201.227 71.2734 201.196 71.5234C201.154 71.8047 201.211 72.0286 201.367 72.1953C201.529 72.3568 201.748 72.4401 202.024 72.4453ZM214.464 67.6641C214.162 67.612 213.914 67.5859 213.722 67.5859C212.935 67.5651 212.313 67.8594 211.854 68.4688L210.878 74H208.675L210.143 65.5469L212.214 65.5391L212.011 66.5703C212.542 65.7734 213.198 65.375 213.979 65.375C214.198 65.375 214.453 65.4115 214.745 65.4844L214.464 67.6641ZM220.724 63.4688L220.357 65.5469H221.763L221.474 67.2031H220.068L219.349 71.4375C219.318 71.7031 219.339 71.9062 219.412 72.0469C219.484 72.1875 219.662 72.263 219.943 72.2734C220.026 72.2786 220.25 72.2656 220.615 72.2344L220.458 73.9609C220.068 74.0911 219.646 74.151 219.193 74.1406C218.469 74.1302 217.93 73.9036 217.576 73.4609C217.221 73.0182 217.076 72.4193 217.138 71.6641L217.865 67.2031H216.669L216.958 65.5469H218.154L218.513 63.4688H220.724Z" fill="white"/>
<path d="M259.711 11.8607C259.711 11.8607 245.641 35.6444 244.333 38.1042L236.819 52.2369L227.806 44.691C227.607 44.5282 227.375 44.3758 227.13 44.2459C226.219 43.7615 225.173 43.6927 224.252 43.9775L220.658 45.1074L227.456 67.5952C227.838 68.8598 228.688 69.9424 229.91 70.5922L252.131 82.4065C253.309 83.0331 254.69 83.1629 255.97 82.7673C257.249 82.3717 258.322 81.4831 258.953 80.2969L269.653 60.1713C270.64 58.3152 270.373 56.1368 269.13 54.6153L257.055 39.533C256.651 39.06 265.266 14.8142 265.266 14.8142L259.711 11.8607ZM249.441 98.1864L254.197 89.2417L227.532 75.0646L222.776 84.0093L249.441 98.1864Z" fill="white"/>
<path d="M243.5 17.5H26L53 2" stroke="white" stroke-width="4" stroke-linecap="round" stroke-linejoin="round"/>
</svg>
