<svg width="335" height="94" viewBox="0 0 335 94" fill="none" xmlns="http://www.w3.org/2000/svg">
<path d="M12.2729 45.7988V52.9424H17.2412V58.6357H12.2729V73.1377C12.2729 74.2119 12.4788 74.9818 12.8906 75.4473C13.3024 75.9128 14.0902 76.1455 15.2539 76.1455C16.1133 76.1455 16.8742 76.0828 17.5366 75.9575V81.8389C16.0148 82.3044 14.4482 82.5371 12.8369 82.5371C7.39421 82.5371 4.61914 79.7889 4.51172 74.2925V58.6357H0.268555V52.9424H4.51172V45.7988H12.2729ZM24.5008 67.2026C24.5008 64.3201 25.0558 61.751 26.1658 59.4951C27.2758 57.2393 28.8693 55.4937 30.9461 54.2583C33.0408 53.0229 35.4668 52.4053 38.2239 52.4053C42.1448 52.4053 45.3406 53.6048 47.8113 56.0039C50.2999 58.403 51.6875 61.6615 51.9739 65.7793L52.0276 67.7666C52.0276 72.2246 50.7833 75.8053 48.2947 78.5088C45.8061 81.1943 42.4671 82.5371 38.2776 82.5371C34.0882 82.5371 30.7402 81.1943 28.2337 78.5088C25.7451 75.8232 24.5008 72.1709 24.5008 67.5518V67.2026ZM32.262 67.7666C32.262 70.5238 32.7812 72.6364 33.8196 74.1045C34.858 75.5547 36.344 76.2798 38.2776 76.2798C40.1575 76.2798 41.6256 75.5636 42.6819 74.1313C43.7382 72.6812 44.2664 70.3716 44.2664 67.2026C44.2664 64.4992 43.7382 62.4045 42.6819 60.9185C41.6256 59.4325 40.1396 58.6895 38.2239 58.6895C36.3261 58.6895 34.858 59.4325 33.8196 60.9185C32.7812 62.3866 32.262 64.6693 32.262 67.7666ZM87.9151 67.7397C87.9151 72.2157 86.8946 75.8053 84.8536 78.5088C82.8305 81.1943 80.0912 82.5371 76.6358 82.5371C73.6996 82.5371 71.3274 81.5166 69.5191 79.4756V93.1719H61.7579V52.9424H68.9552L69.2237 55.7891C71.1036 53.5332 73.5564 52.4053 76.5821 52.4053C80.1629 52.4053 82.9469 53.7301 84.9342 56.3799C86.9215 59.0296 87.9151 62.682 87.9151 67.3369V67.7397ZM80.1539 67.1758C80.1539 64.4723 79.6705 62.3866 78.7037 60.9185C77.7548 59.4504 76.3673 58.7163 74.5411 58.7163C72.1062 58.7163 70.4322 59.6473 69.5191 61.5093V73.4062C70.468 75.3219 72.1599 76.2798 74.5948 76.2798C78.3009 76.2798 80.1539 73.2451 80.1539 67.1758ZM133.184 82C132.826 81.3018 132.566 80.4334 132.405 79.395C130.525 81.4897 128.081 82.5371 125.073 82.5371C122.227 82.5371 119.863 81.7135 117.984 80.0664C116.122 78.4193 115.191 76.3424 115.191 73.8359C115.191 70.7565 116.328 68.3932 118.601 66.7461C120.893 65.099 124.196 64.2664 128.511 64.2485H132.083V62.5835C132.083 61.2407 131.734 60.1665 131.035 59.3608C130.355 58.5552 129.272 58.1523 127.786 58.1523C126.479 58.1523 125.449 58.4657 124.697 59.0923C123.963 59.7189 123.596 60.5783 123.596 61.6704H115.835C115.835 59.9875 116.354 58.4299 117.393 56.9976C118.431 55.5653 119.899 54.4463 121.797 53.6406C123.695 52.8171 125.825 52.4053 128.189 52.4053C131.769 52.4053 134.607 53.3094 136.702 55.1177C138.814 56.908 139.871 59.4325 139.871 62.6909V75.2861C139.889 78.0433 140.274 80.1291 141.026 81.5435V82H133.184ZM126.765 76.6021C127.911 76.6021 128.967 76.3514 129.934 75.8501C130.901 75.3309 131.617 74.6416 132.083 73.7822V68.7871H129.182C125.297 68.7871 123.229 70.1299 122.979 72.8154L122.952 73.272C122.952 74.2388 123.292 75.0355 123.972 75.6621C124.653 76.2887 125.584 76.6021 126.765 76.6021ZM167.111 60.2202C166.055 60.077 165.124 60.0054 164.318 60.0054C161.382 60.0054 159.457 60.999 158.544 62.9863V82H150.783V52.9424H158.114L158.329 56.4067C159.887 53.7391 162.044 52.4053 164.801 52.4053C165.661 52.4053 166.466 52.5216 167.218 52.7544L167.111 60.2202ZM186.455 45.7988V52.9424H191.424V58.6357H186.455V73.1377C186.455 74.2119 186.661 74.9818 187.073 75.4473C187.485 75.9128 188.273 76.1455 189.436 76.1455C190.296 76.1455 191.057 76.0828 191.719 75.9575V81.8389C190.197 82.3044 188.631 82.5371 187.019 82.5371C181.577 82.5371 178.802 79.7889 178.694 74.2925V58.6357H174.451V52.9424H178.694V45.7988H186.455ZM208.888 82H201.1V52.9424H208.888V82ZM200.644 45.4229C200.644 44.2591 201.029 43.3013 201.798 42.5493C202.586 41.7974 203.651 41.4214 204.994 41.4214C206.319 41.4214 207.375 41.7974 208.163 42.5493C208.951 43.3013 209.345 44.2591 209.345 45.4229C209.345 46.6045 208.942 47.5713 208.136 48.3232C207.349 49.0752 206.301 49.4512 204.994 49.4512C203.687 49.4512 202.631 49.0752 201.825 48.3232C201.038 47.5713 200.644 46.6045 200.644 45.4229ZM235.994 73.9702C235.994 73.0213 235.52 72.2783 234.571 71.7412C233.64 71.1862 232.136 70.6938 230.059 70.2642C223.148 68.814 219.693 65.8778 219.693 61.4556C219.693 58.8774 220.758 56.729 222.889 55.0103C225.037 53.2736 227.839 52.4053 231.294 52.4053C234.982 52.4053 237.928 53.2736 240.13 55.0103C242.35 56.7469 243.46 59.0028 243.46 61.7778H235.699C235.699 60.6678 235.341 59.7547 234.624 59.0386C233.908 58.3045 232.789 57.9375 231.267 57.9375C229.961 57.9375 228.949 58.2329 228.233 58.8237C227.517 59.4146 227.159 60.1665 227.159 61.0796C227.159 61.939 227.561 62.6372 228.367 63.1743C229.191 63.6935 230.569 64.1501 232.503 64.5439C234.436 64.9199 236.066 65.3496 237.391 65.833C241.49 67.3369 243.54 69.9419 243.54 73.6479C243.54 76.2977 242.404 78.4461 240.13 80.0933C237.856 81.7225 234.92 82.5371 231.321 82.5371C228.886 82.5371 226.72 82.1074 224.822 81.248C222.942 80.3708 221.465 79.1802 220.391 77.6763C219.317 76.1545 218.78 74.5163 218.78 72.7617H226.138C226.21 74.1403 226.72 75.1966 227.669 75.9307C228.618 76.6647 229.889 77.0317 231.482 77.0317C232.968 77.0317 234.087 76.7542 234.839 76.1992C235.609 75.6263 235.994 74.8833 235.994 73.9702ZM262.804 45.7988V52.9424H267.773V58.6357H262.804V73.1377C262.804 74.2119 263.01 74.9818 263.422 75.4473C263.834 75.9128 264.622 76.1455 265.785 76.1455C266.645 76.1455 267.406 76.0828 268.068 75.9575V81.8389C266.546 82.3044 264.98 82.5371 263.368 82.5371C257.926 82.5371 255.151 79.7889 255.043 74.2925V58.6357H250.8V52.9424H255.043V45.7988H262.804ZM292.784 73.9702C292.784 73.0213 292.309 72.2783 291.36 71.7412C290.429 71.1862 288.925 70.6938 286.849 70.2642C279.938 68.814 276.482 65.8778 276.482 61.4556C276.482 58.8774 277.548 56.729 279.678 55.0103C281.827 53.2736 284.629 52.4053 288.084 52.4053C291.772 52.4053 294.717 53.2736 296.919 55.0103C299.139 56.7469 300.25 59.0028 300.25 61.7778H292.488C292.488 60.6678 292.13 59.7547 291.414 59.0386C290.698 58.3045 289.579 57.9375 288.057 57.9375C286.75 57.9375 285.739 58.2329 285.022 58.8237C284.306 59.4146 283.948 60.1665 283.948 61.0796C283.948 61.939 284.351 62.6372 285.157 63.1743C285.98 63.6935 287.359 64.1501 289.292 64.5439C291.226 64.9199 292.855 65.3496 294.18 65.833C298.28 67.3369 300.33 69.9419 300.33 73.6479C300.33 76.2977 299.193 78.4461 296.919 80.0933C294.646 81.7225 291.709 82.5371 288.111 82.5371C285.676 82.5371 283.51 82.1074 281.612 81.248C279.732 80.3708 278.255 79.1802 277.181 77.6763C276.106 76.1545 275.569 74.5163 275.569 72.7617H282.928C282.999 74.1403 283.51 75.1966 284.458 75.9307C285.407 76.6647 286.679 77.0317 288.272 77.0317C289.758 77.0317 290.877 76.7542 291.629 76.1992C292.399 75.6263 292.784 74.8833 292.784 73.9702Z" fill="#E5277B"/>
<path d="M16.2729 45.7988V52.9424H21.2412V58.6357H16.2729V73.1377C16.2729 74.2119 16.4788 74.9818 16.8906 75.4473C17.3024 75.9128 18.0902 76.1455 19.2539 76.1455C20.1133 76.1455 20.8742 76.0828 21.5366 75.9575V81.8389C20.0148 82.3044 18.4482 82.5371 16.8369 82.5371C11.3942 82.5371 8.61914 79.7889 8.51172 74.2925V58.6357H4.26855V52.9424H8.51172V45.7988H16.2729ZM28.5008 67.2026C28.5008 64.3201 29.0558 61.751 30.1658 59.4951C31.2758 57.2393 32.8693 55.4937 34.9461 54.2583C37.0408 53.0229 39.4668 52.4053 42.2239 52.4053C46.1448 52.4053 49.3406 53.6048 51.8113 56.0039C54.2999 58.403 55.6875 61.6615 55.9739 65.7793L56.0276 67.7666C56.0276 72.2246 54.7833 75.8053 52.2947 78.5088C49.8061 81.1943 46.4671 82.5371 42.2776 82.5371C38.0882 82.5371 34.7402 81.1943 32.2337 78.5088C29.7451 75.8232 28.5008 72.1709 28.5008 67.5518V67.2026ZM36.262 67.7666C36.262 70.5238 36.7812 72.6364 37.8196 74.1045C38.858 75.5547 40.344 76.2798 42.2776 76.2798C44.1575 76.2798 45.6256 75.5636 46.6819 74.1313C47.7382 72.6812 48.2664 70.3716 48.2664 67.2026C48.2664 64.4992 47.7382 62.4045 46.6819 60.9185C45.6256 59.4325 44.1396 58.6895 42.2239 58.6895C40.3261 58.6895 38.858 59.4325 37.8196 60.9185C36.7812 62.3866 36.262 64.6693 36.262 67.7666ZM91.9151 67.7397C91.9151 72.2157 90.8946 75.8053 88.8536 78.5088C86.8305 81.1943 84.0912 82.5371 80.6358 82.5371C77.6996 82.5371 75.3274 81.5166 73.5191 79.4756V93.1719H65.7579V52.9424H72.9552L73.2237 55.7891C75.1036 53.5332 77.5564 52.4053 80.5821 52.4053C84.1629 52.4053 86.9469 53.7301 88.9342 56.3799C90.9215 59.0296 91.9151 62.682 91.9151 67.3369V67.7397ZM84.1539 67.1758C84.1539 64.4723 83.6705 62.3866 82.7037 60.9185C81.7548 59.4504 80.3673 58.7163 78.5411 58.7163C76.1062 58.7163 74.4322 59.6473 73.5191 61.5093V73.4062C74.468 75.3219 76.1599 76.2798 78.5948 76.2798C82.3009 76.2798 84.1539 73.2451 84.1539 67.1758ZM137.184 82C136.826 81.3018 136.566 80.4334 136.405 79.395C134.525 81.4897 132.081 82.5371 129.073 82.5371C126.227 82.5371 123.863 81.7135 121.984 80.0664C120.122 78.4193 119.191 76.3424 119.191 73.8359C119.191 70.7565 120.328 68.3932 122.601 66.7461C124.893 65.099 128.196 64.2664 132.511 64.2485H136.083V62.5835C136.083 61.2407 135.734 60.1665 135.035 59.3608C134.355 58.5552 133.272 58.1523 131.786 58.1523C130.479 58.1523 129.449 58.4657 128.697 59.0923C127.963 59.7189 127.596 60.5783 127.596 61.6704H119.835C119.835 59.9875 120.354 58.4299 121.393 56.9976C122.431 55.5653 123.899 54.4463 125.797 53.6406C127.695 52.8171 129.825 52.4053 132.189 52.4053C135.769 52.4053 138.607 53.3094 140.702 55.1177C142.814 56.908 143.871 59.4325 143.871 62.6909V75.2861C143.889 78.0433 144.274 80.1291 145.026 81.5435V82H137.184ZM130.765 76.6021C131.911 76.6021 132.967 76.3514 133.934 75.8501C134.901 75.3309 135.617 74.6416 136.083 73.7822V68.7871H133.182C129.297 68.7871 127.229 70.1299 126.979 72.8154L126.952 73.272C126.952 74.2388 127.292 75.0355 127.972 75.6621C128.653 76.2887 129.584 76.6021 130.765 76.6021ZM171.111 60.2202C170.055 60.077 169.124 60.0054 168.318 60.0054C165.382 60.0054 163.457 60.999 162.544 62.9863V82H154.783V52.9424H162.114L162.329 56.4067C163.887 53.7391 166.044 52.4053 168.801 52.4053C169.661 52.4053 170.466 52.5216 171.218 52.7544L171.111 60.2202ZM190.455 45.7988V52.9424H195.424V58.6357H190.455V73.1377C190.455 74.2119 190.661 74.9818 191.073 75.4473C191.485 75.9128 192.273 76.1455 193.436 76.1455C194.296 76.1455 195.057 76.0828 195.719 75.9575V81.8389C194.197 82.3044 192.631 82.5371 191.019 82.5371C185.577 82.5371 182.802 79.7889 182.694 74.2925V58.6357H178.451V52.9424H182.694V45.7988H190.455ZM212.888 82H205.1V52.9424H212.888V82ZM204.644 45.4229C204.644 44.2591 205.029 43.3013 205.798 42.5493C206.586 41.7974 207.651 41.4214 208.994 41.4214C210.319 41.4214 211.375 41.7974 212.163 42.5493C212.951 43.3013 213.345 44.2591 213.345 45.4229C213.345 46.6045 212.942 47.5713 212.136 48.3232C211.349 49.0752 210.301 49.4512 208.994 49.4512C207.687 49.4512 206.631 49.0752 205.825 48.3232C205.038 47.5713 204.644 46.6045 204.644 45.4229ZM239.994 73.9702C239.994 73.0213 239.52 72.2783 238.571 71.7412C237.64 71.1862 236.136 70.6938 234.059 70.2642C227.148 68.814 223.693 65.8778 223.693 61.4556C223.693 58.8774 224.758 56.729 226.889 55.0103C229.037 53.2736 231.839 52.4053 235.294 52.4053C238.982 52.4053 241.928 53.2736 244.13 55.0103C246.35 56.7469 247.46 59.0028 247.46 61.7778H239.699C239.699 60.6678 239.341 59.7547 238.624 59.0386C237.908 58.3045 236.789 57.9375 235.267 57.9375C233.961 57.9375 232.949 58.2329 232.233 58.8237C231.517 59.4146 231.159 60.1665 231.159 61.0796C231.159 61.939 231.561 62.6372 232.367 63.1743C233.191 63.6935 234.569 64.1501 236.503 64.5439C238.436 64.9199 240.066 65.3496 241.391 65.833C245.49 67.3369 247.54 69.9419 247.54 73.6479C247.54 76.2977 246.404 78.4461 244.13 80.0933C241.856 81.7225 238.92 82.5371 235.321 82.5371C232.886 82.5371 230.72 82.1074 228.822 81.248C226.942 80.3708 225.465 79.1802 224.391 77.6763C223.317 76.1545 222.78 74.5163 222.78 72.7617H230.138C230.21 74.1403 230.72 75.1966 231.669 75.9307C232.618 76.6647 233.889 77.0317 235.482 77.0317C236.968 77.0317 238.087 76.7542 238.839 76.1992C239.609 75.6263 239.994 74.8833 239.994 73.9702ZM266.804 45.7988V52.9424H271.773V58.6357H266.804V73.1377C266.804 74.2119 267.01 74.9818 267.422 75.4473C267.834 75.9128 268.622 76.1455 269.785 76.1455C270.645 76.1455 271.406 76.0828 272.068 75.9575V81.8389C270.546 82.3044 268.98 82.5371 267.368 82.5371C261.926 82.5371 259.151 79.7889 259.043 74.2925V58.6357H254.8V52.9424H259.043V45.7988H266.804ZM296.784 73.9702C296.784 73.0213 296.309 72.2783 295.36 71.7412C294.429 71.1862 292.925 70.6938 290.849 70.2642C283.938 68.814 280.482 65.8778 280.482 61.4556C280.482 58.8774 281.548 56.729 283.678 55.0103C285.827 53.2736 288.629 52.4053 292.084 52.4053C295.772 52.4053 298.717 53.2736 300.919 55.0103C303.139 56.7469 304.25 59.0028 304.25 61.7778H296.488C296.488 60.6678 296.13 59.7547 295.414 59.0386C294.698 58.3045 293.579 57.9375 292.057 57.9375C290.75 57.9375 289.739 58.2329 289.022 58.8237C288.306 59.4146 287.948 60.1665 287.948 61.0796C287.948 61.939 288.351 62.6372 289.157 63.1743C289.98 63.6935 291.359 64.1501 293.292 64.5439C295.226 64.9199 296.855 65.3496 298.18 65.833C302.28 67.3369 304.33 69.9419 304.33 73.6479C304.33 76.2977 303.193 78.4461 300.919 80.0933C298.646 81.7225 295.709 82.5371 292.111 82.5371C289.676 82.5371 287.51 82.1074 285.612 81.248C283.732 80.3708 282.255 79.1802 281.181 77.6763C280.106 76.1545 279.569 74.5163 279.569 72.7617H286.928C286.999 74.1403 287.51 75.1966 288.458 75.9307C289.407 76.6647 290.679 77.0317 292.272 77.0317C293.758 77.0317 294.877 76.7542 295.629 76.1992C296.399 75.6263 296.784 74.8833 296.784 73.9702Z" fill="#212034"/>
</svg>
