<?xml version="1.0" encoding="utf-8"?>
<!-- Generator: Adobe Illustrator 21.0.2, SVG Export Plug-In . SVG Version: 6.00 Build 0)  -->
<svg version="1.1" id="duet" xmlns="http://www.w3.org/2000/svg" xmlns:xlink="http://www.w3.org/1999/xlink" x="0px" y="0px"
	 viewBox="0 0 159.5 97.5" style="enable-background:new 0 0 159.5 97.5;" xml:space="preserve">
<style type="text/css">
	.st0{fill:none;stroke:#FFFFFF;stroke-miterlimit:10;}
</style>
<path id="t" class="st0" d="M158.2,90.5c1,0.8,1.1,2.2,0.3,3.2c-1.8,2.1-4.4,3.2-7.1,3.2c-5.2,0-9.4-4.2-9.4-9.3V62.7h-2.1
	c-1.2,0-2.2-1-2.2-2.3c0-1.2,1-2.2,2.2-2.2h2.1v-7.3c0-1.3,1.1-2.3,2.3-2.3c1.3,0,2.3,1,2.3,2.3v7.3h8.1c1.3,0,2.3,1,2.3,2.2
	c0,1.3-1,2.3-2.3,2.3h-8.1v25.1c0,2.6,2.2,4.7,4.8,4.7c1.4,0,2.7-0.6,3.5-1.7C155.8,89.8,157.2,89.7,158.2,90.5z"/>
<path id="e" class="st0" d="M110.1,97c-10.5,0-18.4-8.4-18.4-19.4c0-5.3,1.7-10.1,4.9-13.7c3.3-3.7,8-5.8,13.1-5.8
	c10.3,0,17.7,8.1,17.7,19.4c0,1.2-1,2.3-2.3,2.3H96.4c1,7.3,6.6,12.5,13.7,12.5c4.8,0,9.1-2.3,11.5-6.5c0.7-1.1,2.1-1.4,3.2-0.7
	s1.4,2.1,0.8,3.2C122.2,93.9,116.6,97,110.1,97z M96.4,75.3h26.3c-0.9-7.5-5.9-12.6-13-12.6S97.4,67.9,96.4,75.3z"/>
<path id="u" class="st0" d="M75.5,92.1c-2.9,3-6.9,4.9-11.4,4.9s-8.4-1.8-11.2-5c-2.7-3-4.2-7.2-4.2-11.7v-20c0-1.2,1-2.2,2.3-2.2
	s2.3,1,2.3,2.2v20c0,7,4.5,12,10.8,12c6.4,0,11.4-5.3,11.4-12V80c0-0.1,0-0.1,0-0.2V60.4c0-1.2,1-2.2,2.3-2.2s2.3,1,2.3,2.2v19.7
	C80.1,84.7,78.1,89.4,75.5,92.1z"/>
<path id="d" class="st0" d="M32.8,90.7C29.6,94.8,24.6,97,19,97C8.4,97,0.5,88.7,0.5,77.6s7.9-19.4,18.4-19.4
	c5.6,0,10.5,2.4,13.8,6.3V2.7c0-0.5,0.2-1,0.4-1.4c0.6-0.8,1.6-1,2.6-0.7l27.4,9.3c1.1,0.5,1.5,1.8,0.9,2.9l0,0
	c-0.5,1.1-1.8,1.5-2.9,0.9L37.3,6.2v71.4C37.3,83.3,35.7,86.9,32.8,90.7z M32.8,77.6c0-8.5-6-14.9-13.8-14.9S5.1,69.1,5.1,77.6
	c0,8.4,6,14.8,13.8,14.8S32.8,86,32.8,77.6z"/>
</svg>
